<?xml version="1.0" encoding="UTF-8"?>
<svg id="Layer_2" xmlns="http://www.w3.org/2000/svg" viewBox="0 0 259.36 140">
  <defs>
    <style>
      .cls-1 {
        fill: #4faf30;
      }
    </style>
  </defs>
  <g id="Layer_1-2" data-name="Layer_1">
    <path class="cls-1" d="M248.29,40.61c-3.31-4.84-7.28-9.2-11.77-12.94-11.01-9.2-25.19-14.73-40.64-14.73h-40.55c-1.09,0-1.98-.89-1.98-1.98V1.98c0-1.09-.89-1.98-1.98-1.98H63.49c-14.43,0-27.74,4.82-38.41,12.94-5.42,4.12-10.15,9.1-14,14.73-2.75,4-5.05,8.35-6.82,12.94C1.51,47.72,0,55.45,0,63.53c0,13.3,4.09,25.65,11.07,35.86,3.31,4.84,7.28,9.2,11.77,12.94,11.01,9.2,25.19,14.73,40.64,14.73h40.55c1.09,0,1.98.89,1.98,1.98v8.99c0,1.09.89,1.98,1.98,1.98h87.89c14.43,0,27.74-4.82,38.41-12.94,5.42-4.12,10.15-9.1,14-14.73,2.75-4,5.05-8.35,6.82-12.94,2.75-7.11,4.26-14.83,4.26-22.92,0-13.3-4.09-25.65-11.07-35.86ZM223.44,99.39c-6.57,7.91-16.48,12.94-27.56,12.94h-40.55c-1.09,0-1.98-.89-1.98-1.98v-8.99c0-1.09-.89-1.98-1.98-1.98H63.49c-19.79,0-35.83-16.05-35.83-35.86,0-8.72,3.11-16.7,8.27-22.92,6.57-7.91,16.48-12.94,27.56-12.94h40.55c1.09,0,1.98.89,1.98,1.98v8.99c0,1.09.89,1.98,1.98,1.98h87.89c19.79,0,35.83,16.05,35.83,35.86,0,8.72-3.11,16.7-8.27,22.92Z"/>
  </g>
</svg>