<?xml version="1.0" encoding="UTF-8"?>
<svg id="Layer_2" xmlns="http://www.w3.org/2000/svg" viewBox="0 0 553.29 87.71">
  <defs>
    <style>
      .cls-1 {
        fill: #333;
      }

      .cls-2 {
        fill: #4faf30;
      }
    </style>
  </defs>
  <g id="Layer_1-2" data-name="Layer_1">
    <g>
      <path class="cls-2" d="M155.55,25.44c-2.08-3.03-4.56-5.76-7.37-8.11-6.9-5.76-15.78-9.23-25.46-9.23h-25.4c-.68,0-1.24-.56-1.24-1.24V1.24c0-.68-.56-1.24-1.24-1.24h-55.07c-9.04,0-17.38,3.02-24.06,8.11-3.39,2.58-6.36,5.7-8.77,9.23-1.72,2.51-3.16,5.23-4.27,8.11-1.73,4.45-2.67,9.29-2.67,14.36,0,8.34,2.56,16.07,6.94,22.47,2.08,3.03,4.56,5.76,7.38,8.11,6.9,5.76,15.78,9.23,25.46,9.23h25.4c.68,0,1.24.56,1.24,1.24v5.63c0,.68.56,1.24,1.24,1.24h55.07c9.04,0,17.38-3.02,24.06-8.11,3.39-2.58,6.36-5.7,8.77-9.23,1.72-2.51,3.16-5.23,4.27-8.11,1.73-4.45,2.67-9.29,2.67-14.36,0-8.34-2.56-16.07-6.94-22.47ZM139.98,62.27c-4.12,4.96-10.32,8.11-17.27,8.11h-25.4c-.68,0-1.24-.56-1.24-1.24v-5.63c0-.68-.56-1.24-1.24-1.24h-55.07c-12.4,0-22.45-10.06-22.45-22.47,0-5.46,1.95-10.46,5.18-14.36,4.12-4.96,10.32-8.11,17.27-8.11h25.4c.68,0,1.24.56,1.24,1.24v5.63c0,.68.56,1.24,1.24,1.24h55.07c12.4,0,22.45,10.06,22.45,22.47,0,5.46-1.95,10.46-5.18,14.36Z"/>
      <g>
        <path class="cls-1" d="M180.48,43.85c0-15.46,11.86-26.31,28.04-26.31,9.85,0,17.61,3.59,22.57,10.06l-10.71,9.56c-2.95-3.74-6.47-5.89-11-5.89-7.05,0-11.79,4.89-11.79,12.58s4.74,12.58,11.79,12.58c4.53,0,8.05-2.16,11-5.9l10.71,9.56c-4.96,6.47-12.73,10.07-22.57,10.07-16.18,0-28.04-10.86-28.04-26.31Z"/>
        <path class="cls-1" d="M269.92,60.25h-19.12l-3.38,8.77h-17.25l22-50.33h16.68l22,50.33h-17.54l-3.38-8.77ZM265.25,48.03l-4.89-12.65-4.89,12.65h9.78Z"/>
        <path class="cls-1" d="M342.86,55.14c0,8.77-7.4,13.88-21.28,13.88h-28.33V18.69h26.89c13.88,0,20.35,5.54,20.35,13.16,0,4.67-2.37,8.56-6.97,10.86,5.9,2.16,9.35,6.47,9.35,12.44ZM309.93,30.55v7.48h7.91c3.81,0,5.54-1.29,5.54-3.74s-1.73-3.74-5.54-3.74h-7.91ZM325.75,53.2c0-2.59-1.87-3.95-5.61-3.95h-10.21v7.91h10.21c3.74,0,5.61-1.37,5.61-3.95Z"/>
        <path class="cls-1" d="M392.15,55.86v13.16h-46.23v-10.42l23.01-26.74h-22.29v-13.16h44.36v10.42l-23.01,26.74h24.16Z"/>
        <path class="cls-1" d="M439.55,56.22v12.8h-41.84V18.69h40.91v12.8h-24.23v5.9h21.28v12.22h-21.28v6.61h25.16Z"/>
        <path class="cls-1" d="M467.86,56.36h-4.6v12.65h-16.97V18.69h24.23c14.02,0,22.93,7.33,22.93,18.98,0,7.26-3.45,12.73-9.49,15.82l10.57,15.53h-18.12l-8.56-12.65ZM469.45,31.78h-6.18v11.79h6.18c4.67,0,6.9-2.23,6.9-5.9s-2.23-5.9-6.9-5.9Z"/>
        <path class="cls-1" d="M496.5,43.85c0-15.24,12.01-26.31,28.4-26.31s28.4,11.07,28.4,26.31-12.01,26.31-28.4,26.31-28.4-11.07-28.4-26.31ZM536.18,43.85c0-7.84-5.03-12.58-11.29-12.58s-11.29,4.74-11.29,12.58,5.03,12.58,11.29,12.58,11.29-4.75,11.29-12.58Z"/>
      </g>
    </g>
  </g>
</svg>