<svg width="385" height="165" viewBox="0 0 385 165" fill="none" xmlns="http://www.w3.org/2000/svg">
<path d="M236.945 61.9726H198.64C187.359 61.9726 177.129 66.5466 169.737 73.9327C164.003 79.6618 159.951 87.0946 158.432 95.4024C158.432 95.4024 158.432 95.4141 158.432 95.4258C158.362 95.7058 158.316 95.9858 158.281 96.2775C158.281 96.2892 158.281 96.3009 158.281 96.3242C158.269 96.5109 158.257 96.6976 158.257 96.8843C158.257 100.163 160.908 102.812 164.19 102.812H193.187C191.388 105.916 189.204 108.763 186.682 111.271C179.29 118.657 169.06 123.231 157.778 123.231C146.497 123.231 136.267 118.657 128.875 111.271C126.353 108.751 124.169 105.916 122.37 102.812C118.89 96.8026 116.905 89.8366 116.905 82.3922C116.905 74.9478 118.902 67.9818 122.37 61.9726C124.169 58.8689 126.353 56.0218 128.875 53.5131C136.267 46.127 146.497 41.553 157.778 41.553H174.712C190.034 41.553 204.736 35.4738 215.574 24.6456L229.401 10.8303C230.475 9.75683 231.129 8.28662 231.141 6.65305C231.141 3.38592 228.291 0.713867 225.033 0.713867H157.767C142.877 0.713867 128.91 4.69277 116.893 11.6471C110.692 15.2293 105.005 19.6166 99.9715 24.6456C94.9382 29.6747 90.5589 35.3572 86.962 41.553C83.3068 47.8773 80.469 54.7383 78.6005 61.9726C76.9188 68.4952 76.0312 75.3445 76.0312 82.3922C76.0312 89.4399 76.9305 96.2775 78.6005 102.812C80.469 110.058 83.3068 116.919 86.962 123.231C90.5472 129.427 94.9382 135.11 99.9715 140.139C105.005 145.168 110.692 149.544 116.893 153.137C128.922 160.092 142.877 164.071 157.767 164.071C172.656 164.071 186.624 160.092 198.64 153.137C204.842 149.555 210.529 145.18 215.562 140.139C220.595 135.11 224.975 129.427 228.572 123.231C232.227 116.907 235.065 110.046 236.933 102.812C238.615 96.2892 239.502 89.4399 239.502 82.3922C239.502 75.3445 238.603 68.5069 236.933 61.9726H236.945Z" fill="white"/>
<path style="mix-blend-mode:multiply" opacity="0.56" d="M236.945 102.811C235.077 110.057 232.239 116.918 228.584 123.23H157.779C169.06 123.23 179.29 118.656 186.682 111.27C189.205 108.75 191.389 105.914 193.187 102.811H236.945Z" fill="url(#paint0_linear_25_84)"/>
<path d="M382.816 77.2916C381.228 71.1307 378.822 65.3082 375.704 59.9291C372.656 54.6667 368.931 49.8243 364.645 45.5537C360.359 41.2715 355.524 37.5609 350.258 34.5038C340.039 28.5996 328.174 25.2158 315.515 25.2158C302.856 25.2158 290.991 28.5996 280.772 34.5038C275.506 37.5492 270.659 41.2715 266.385 45.5537C262.111 49.836 258.385 54.6667 255.326 59.9291C252.219 65.2966 249.802 71.1307 248.214 77.2916C246.789 82.8457 246.03 88.6566 246.03 94.6424C246.03 100.628 246.789 106.451 248.214 111.993C249.802 118.154 252.208 123.977 255.326 129.356C258.374 134.618 262.099 139.46 266.385 143.731C270.671 148.013 275.506 151.724 280.772 154.781C290.991 160.685 302.856 164.069 315.515 164.069C328.174 164.069 340.039 160.685 350.258 154.781C355.524 151.736 360.371 148.013 364.645 143.731C368.931 139.449 372.645 134.618 375.704 129.356C378.811 123.988 381.228 118.154 382.816 111.993C384.241 106.439 385 100.628 385 94.6424C385 88.6566 384.241 82.8341 382.816 77.2916ZM290.956 119.193C288.819 117.057 286.95 114.642 285.432 112.005C282.477 106.894 280.784 100.967 280.784 94.6541C280.784 88.3415 282.477 82.4023 285.432 77.3033C286.962 74.6662 288.819 72.2509 290.956 70.1156C297.239 63.838 305.927 59.9525 315.527 59.9525C325.126 59.9525 333.803 63.838 340.097 70.1156C342.235 72.2509 344.103 74.6662 345.621 77.3033C348.576 82.414 350.269 88.3415 350.269 94.6541C350.269 100.967 348.576 106.906 345.621 112.005C344.091 114.642 342.235 117.057 340.097 119.193C333.815 125.47 325.126 129.356 315.527 129.356C305.927 129.356 297.25 125.47 290.956 119.193Z" fill="white"/>
<path d="M72.4458 122.251C73.2283 121.691 73.6837 120.746 73.5552 119.731C73.5552 119.684 73.5552 119.638 73.5319 119.603C73.5319 119.544 73.5085 119.486 73.4968 119.428C73.4968 119.428 73.4968 119.428 73.4968 119.416C73.0648 117.304 72.4575 115.274 71.6984 113.325C70.4488 110.163 68.7905 107.211 66.7936 104.562C64.8316 101.96 62.5427 99.6381 59.9969 97.6429C57.451 95.6476 54.6366 93.9907 51.647 92.7071C45.8429 90.2335 39.3265 89.2067 32.6116 90.0351C25.8966 90.8636 19.824 93.4306 14.7907 97.2345C12.1981 99.1947 9.87415 101.493 7.87719 104.037C5.8919 106.592 4.22192 109.393 2.949 112.392C1.65272 115.449 0.7535 118.704 0.309729 122.076C-0.0873289 125.122 -0.110685 128.261 0.286373 131.434C0.671753 134.62 1.46587 137.654 2.57529 140.512C3.82486 143.674 5.48316 146.627 7.48013 149.275C9.44206 151.877 11.731 154.199 14.2768 156.195C16.8227 158.19 19.6371 159.847 22.6267 161.13C28.4308 163.604 34.9472 164.631 41.6621 163.802C48.3771 162.974 54.4497 160.407 59.483 156.603C62.0756 154.643 64.3996 152.344 66.3965 149.8C68.3818 147.245 70.0518 144.445 71.3247 141.446C72.1188 139.579 72.7611 137.63 73.2399 135.635C73.2633 135.542 73.2866 135.448 73.31 135.355C73.3567 135.098 73.3684 134.83 73.3334 134.55C73.1582 133.126 71.8853 132.088 70.4722 132.193C70.4255 132.193 70.3788 132.193 70.3321 132.204C70.2854 132.216 70.2386 132.216 70.1919 132.228L55.6993 134.001C54.8234 134.106 54.0994 134.631 53.6907 135.343C53.6673 135.39 53.644 135.425 53.6206 135.472C53.0951 136.498 52.4761 137.467 51.7638 138.365C48.8442 142.111 44.4883 144.736 39.3966 145.366C34.3049 145.996 29.4468 144.491 25.6981 141.562C24.4252 140.571 23.2807 139.404 22.2997 138.097C20.3962 135.577 19.1116 132.543 18.7029 129.182L71.2079 122.741C71.6634 122.683 72.0838 122.52 72.4458 122.263V122.251ZM20.0458 119.649C20.6881 118.144 21.5173 116.744 22.5099 115.472C25.4295 111.727 29.7854 109.101 34.8771 108.471C39.9688 107.841 44.8269 109.346 48.5756 112.275C49.8485 113.267 50.993 114.434 51.974 115.74L20.0458 119.661V119.649Z" fill="white"/>
<defs>
<linearGradient id="paint0_linear_25_84" x1="197.356" y1="123.23" x2="197.356" y2="102.811" gradientUnits="userSpaceOnUse">
<stop stop-color="white" stop-opacity="0"/>
<stop offset="1" stop-opacity="0.7"/>
</linearGradient>
</defs>
</svg>
