<svg width="385" height="165" viewBox="0 0 385 165" fill="none" xmlns="http://www.w3.org/2000/svg">
<path d="M236.945 62.0484H198.64C187.359 62.0484 177.129 66.6281 169.737 74.0234C164.003 79.7598 159.951 87.2018 158.432 95.5201C158.432 95.5201 158.432 95.5318 158.432 95.5434C158.362 95.8238 158.316 96.1042 158.281 96.3963C158.281 96.408 158.281 96.4197 158.281 96.443C158.269 96.63 158.257 96.8169 158.257 97.0038C158.257 100.287 160.908 102.939 164.19 102.939H193.187C191.388 106.046 189.204 108.897 186.682 111.409C179.29 118.804 169.06 123.384 157.778 123.384C146.497 123.384 136.267 118.804 128.875 111.409C126.353 108.885 124.169 106.046 122.37 102.939C118.89 96.922 116.905 89.9473 116.905 82.4936C116.905 75.0399 118.902 68.0651 122.37 62.0484C124.169 58.9407 126.353 56.0901 128.875 53.5783C136.267 46.183 146.497 41.6032 157.778 41.6032H174.712C190.034 41.6032 204.736 35.5164 215.574 24.6746L229.401 10.842C230.475 9.76718 231.129 8.29513 231.141 6.65952C231.141 3.38829 228.291 0.712891 225.033 0.712891H157.767C142.877 0.712891 128.91 4.69678 116.893 11.6598C110.692 15.2465 105.005 19.6393 99.9715 24.6746C94.9382 29.71 90.5589 35.3996 86.962 41.6032C83.3068 47.9354 80.469 54.805 78.6005 62.0484C76.9188 68.5792 76.0312 75.4371 76.0312 82.4936C76.0312 89.5501 76.9305 96.3963 78.6005 102.939C80.469 110.194 83.3068 117.063 86.962 123.384C90.5472 129.588 94.9382 135.277 99.9715 140.313C105.005 145.348 110.692 149.729 116.893 153.327C128.922 160.29 142.877 164.274 157.767 164.274C172.656 164.274 186.624 160.29 198.64 153.327C204.842 149.741 210.529 145.36 215.562 140.313C220.595 135.277 224.975 129.588 228.572 123.384C232.227 117.052 235.065 110.182 236.933 102.939C238.615 96.408 239.502 89.5501 239.502 82.4936C239.502 75.4371 238.603 68.5909 236.933 62.0484H236.945Z" fill="#55B648"/>
<path style="mix-blend-mode:multiply" opacity="0.56" d="M236.945 102.938C235.076 110.194 232.238 117.063 228.583 123.384H157.778C169.06 123.384 179.29 118.804 186.682 111.409C189.204 108.885 191.388 106.046 193.187 102.938H236.945Z" fill="url(#paint0_linear_25_97)"/>
<path d="M382.816 77.3871C381.228 71.2185 378.822 65.3887 375.704 60.0029C372.656 54.7339 368.931 49.8854 364.645 45.6095C360.359 41.3218 355.524 37.6067 350.257 34.5457C340.039 28.6342 328.174 25.2461 315.515 25.2461C302.856 25.2461 290.991 28.6342 280.772 34.5457C275.505 37.595 270.659 41.3218 266.385 45.6095C262.111 49.8971 258.385 54.7339 255.325 60.0029C252.219 65.377 249.802 71.2185 248.213 77.3871C246.789 82.9482 246.03 88.7663 246.03 94.7597C246.03 100.753 246.789 106.583 248.213 112.132C249.802 118.301 252.207 124.131 255.325 129.516C258.374 134.785 262.099 139.634 266.385 143.91C270.671 148.198 275.505 151.913 280.772 154.974C290.991 160.885 302.856 164.273 315.515 164.273C328.174 164.273 340.039 160.885 350.257 154.974C355.524 151.924 360.371 148.198 364.645 143.91C368.931 139.622 372.644 134.785 375.704 129.516C378.811 124.142 381.228 118.301 382.816 112.132C384.241 106.571 385 100.753 385 94.7597C385 88.7663 384.241 82.9365 382.816 77.3871ZM290.956 119.341C288.818 117.203 286.95 114.784 285.432 112.144C282.477 107.027 280.784 101.092 280.784 94.7714C280.784 88.4509 282.477 82.5043 285.432 77.3988C286.962 74.7585 288.818 72.3401 290.956 70.2021C297.238 63.9167 305.927 60.0263 315.526 60.0263C325.126 60.0263 333.803 63.9167 340.097 70.2021C342.234 72.3401 344.103 74.7585 345.621 77.3988C348.576 82.5159 350.269 88.4509 350.269 94.7714C350.269 101.092 348.576 107.038 345.621 112.144C344.091 114.784 342.234 117.203 340.097 119.341C333.815 125.626 325.126 129.516 315.526 129.516C305.927 129.516 297.25 125.626 290.956 119.341Z" fill="#55B648"/>
<path d="M72.4458 122.402C73.2283 121.842 73.6837 120.895 73.5552 119.879C73.5552 119.832 73.5552 119.785 73.5319 119.75C73.5319 119.692 73.5085 119.634 73.4968 119.575C73.4968 119.575 73.4968 119.575 73.4968 119.563C73.0648 117.449 72.4575 115.416 71.6984 113.465C70.4488 110.299 68.7905 107.343 66.7936 104.691C64.8316 102.086 62.5427 99.7609 59.9969 97.7631C57.451 95.7653 54.6366 94.1063 51.647 92.8212C45.8429 90.3444 39.3265 89.3163 32.6116 90.1458C25.8966 90.9753 19.824 93.5455 14.7907 97.3542C12.1981 99.3169 9.87415 101.618 7.87719 104.165C5.8919 106.724 4.22192 109.528 2.949 112.53C1.65272 115.591 0.7535 118.851 0.309729 122.227C-0.0873289 125.276 -0.110685 128.419 0.286373 131.597C0.671753 134.786 1.46587 137.824 2.57529 140.686C3.82486 143.852 5.48316 146.808 7.48013 149.46C9.44206 152.065 11.731 154.39 14.2768 156.388C16.8227 158.386 19.6371 160.045 22.6267 161.33C28.4308 163.807 34.9472 164.835 41.6621 164.005C48.3771 163.176 54.4497 160.606 59.483 156.797C62.0756 154.834 64.3996 152.533 66.3965 149.986C68.3818 147.427 70.0518 144.623 71.3247 141.621C72.1188 139.752 72.7611 137.801 73.2399 135.803C73.2633 135.709 73.2866 135.616 73.31 135.522C73.3567 135.265 73.3684 134.997 73.3334 134.716C73.1582 133.291 71.8853 132.251 70.4722 132.356C70.4255 132.356 70.3788 132.356 70.3321 132.368C70.2854 132.38 70.2386 132.38 70.1919 132.391L55.6993 134.167C54.8234 134.272 54.0994 134.798 53.6907 135.511C53.6673 135.557 53.644 135.593 53.6206 135.639C53.0951 136.667 52.4761 137.637 51.7638 138.537C48.8442 142.287 44.4883 144.916 39.3966 145.546C34.3049 146.177 29.4468 144.67 25.6981 141.738C24.4252 140.745 23.2807 139.576 22.2997 138.268C20.3962 135.744 19.1116 132.707 18.7029 129.342L71.2079 122.893C71.6634 122.835 72.0838 122.671 72.4458 122.414V122.402ZM20.0458 119.797C20.6881 118.29 21.5173 116.888 22.5099 115.615C25.4295 111.864 29.7854 109.236 34.8771 108.605C39.9688 107.974 44.8269 109.481 48.5756 112.414C49.8485 113.407 50.993 114.575 51.974 115.883L20.0458 119.809V119.797Z" fill="#55B648"/>
<defs>
<linearGradient id="paint0_linear_25_97" x1="197.356" y1="123.384" x2="197.356" y2="102.938" gradientUnits="userSpaceOnUse">
<stop stop-color="white" stop-opacity="0"/>
<stop offset="1" stop-opacity="0.7"/>
</linearGradient>
</defs>
</svg>
