<svg width="183" height="231" viewBox="0 0 183 231" fill="none" xmlns="http://www.w3.org/2000/svg">
<g opacity="0.1">
<path d="M145.499 209.696C145.499 213.714 148.757 216.971 152.774 216.971H155.861C159.879 216.971 163.136 213.714 163.136 209.696V113.367C163.136 108.145 168.476 104.623 173.276 106.68L219.519 126.497C221.106 127.177 222.459 128.309 223.409 129.751C224.359 131.193 224.865 132.883 224.863 134.61V228.72C224.863 232.764 221.565 236.031 217.521 235.994L73.3441 234.674C69.3524 234.637 66.1357 231.391 66.1357 227.399V99.2486C66.1355 97.5424 66.6303 95.8728 67.56 94.4422C68.4897 93.0116 69.8145 91.8815 71.3737 91.1888L139.3 61.0041C139.971 60.7062 140.705 60.5804 141.437 60.638C142.168 60.6957 142.874 60.9351 143.49 61.3344C144.105 61.7338 144.612 62.2805 144.963 62.925C145.313 63.5695 145.498 64.2914 145.499 65.0252V209.696Z" fill="#808D97"/>
</g>
</svg>
