<svg width="213" height="132" viewBox="0 0 213 132" fill="none" xmlns="http://www.w3.org/2000/svg">
<path fill-rule="evenodd" clip-rule="evenodd" d="M212.251 118.498C212.251 119.81 164.24 120.875 105.014 120.875C45.7881 120.875 -2.22363 119.81 -2.22363 118.498C-2.22363 117.185 45.7881 116.121 105.014 116.121C164.24 116.121 212.251 117.185 212.251 118.498Z" fill="#4D4D4D"/>
<path d="M104.713 77.4665C108.13 77.1634 111.468 75.3342 114.262 73.8034C115.531 73.1079 116.73 72.4506 117.856 71.9534C123.086 69.6417 126.526 71.5499 126.67 71.6328L128.337 68.8302C128.138 68.7104 123.385 65.9437 116.533 68.9728C115.281 69.5263 114.023 70.2155 112.691 70.9455C106.547 74.3113 102.22 76.1496 98.2012 71.2317C95.3367 67.7253 94.9538 64.2445 94.584 60.8778C94.1768 57.1754 93.756 53.3469 90.0047 50.214C82.9676 44.3362 71.7409 48.0119 71.2652 48.1715L72.3065 51.2607L71.7856 49.7158L72.3046 51.2612C72.4042 51.2282 82.281 48.0138 87.9094 52.7135C90.6529 55.0053 90.9552 57.7536 91.3376 61.2329C91.7399 64.8916 92.1952 69.0378 95.6705 73.2912C98.5243 76.785 101.651 77.7386 104.713 77.4665Z" fill="#3A3A3A"/>
<path d="M103.747 76.4267C104.031 76.4267 104.323 76.4136 104.617 76.3874C107.804 76.1046 110.953 74.3798 113.732 72.8577C115.034 72.1447 116.25 71.4782 117.415 70.9631C119.265 70.1453 121.11 69.7311 122.896 69.7311C124.347 69.7311 125.479 70.0046 126.221 70.2627L126.782 69.3193C125.939 69.0088 124.59 68.6499 122.868 68.6499C120.938 68.6499 118.955 69.0937 116.974 69.9697C115.773 70.5004 114.544 71.1731 113.244 71.8857C109.912 73.7104 106.706 75.3344 103.79 75.3344C101.338 75.3344 99.2345 74.2183 97.3579 71.9216C94.2898 68.1663 93.8714 64.3591 93.5021 60.9997C93.1003 57.3482 92.7208 53.9024 89.3067 51.0508C86.8674 49.0131 83.5855 47.9805 79.5519 47.9805C76.6261 47.9805 74.0367 48.5368 72.6586 48.9001L73.0085 49.9372C74.3482 49.5937 76.8273 49.0752 79.581 49.0752C83.3391 49.0752 86.3766 50.0206 88.6084 51.8837C91.6872 54.4554 92.0269 57.5423 92.4195 61.1166C92.8252 64.7996 93.2431 68.6043 96.5143 72.6084C98.6135 75.1777 100.979 76.4267 103.747 76.4267Z" fill="#414041"/>
<path fill-rule="evenodd" clip-rule="evenodd" d="M123.75 66.3045C123.555 66.2827 122.603 66.3258 122.603 66.3258C122.603 66.3258 122.668 64.4691 122.149 63.4975C121.63 62.526 120.072 62.3746 118.623 62.3965C117.174 62.4178 114.794 63.2385 113.993 64.7499C113.289 66.0799 113.646 68.0953 115.193 68.6206C116.398 69.03 118.453 69.2512 119.445 69.3928C120.808 69.5873 122.884 69.8463 122.884 69.7382C122.885 69.63 123.75 66.3045 123.75 66.3045Z" fill="#69952F"/>
<path fill-rule="evenodd" clip-rule="evenodd" d="M123.75 66.3045C123.555 66.2827 122.604 66.3258 122.604 66.3258C122.604 66.3258 122.669 64.4691 122.149 63.4975C121.63 62.526 120.072 62.3746 118.623 62.3965C117.859 62.4076 116.836 62.6414 115.923 63.0813C115.665 63.3229 115.448 63.5911 115.292 63.8865C114.588 65.216 114.944 67.2314 116.492 67.7572C117.697 68.1666 119.753 68.3878 120.743 68.5289C121.467 68.6323 122.394 68.754 123.102 68.8287C123.359 67.8106 123.75 66.3045 123.75 66.3045Z" fill="#8CC63F"/>
<path fill-rule="evenodd" clip-rule="evenodd" d="M193.615 66.1097C193.81 66.0878 194.762 66.131 194.762 66.131C194.762 66.131 194.696 64.2742 195.216 63.3022C195.735 62.3307 197.293 62.1793 198.742 62.2011C200.191 62.2225 202.571 63.0432 203.371 64.5546C204.075 65.8846 203.719 67.9 202.172 68.4253C200.966 68.8347 198.911 69.0559 197.92 69.1975C196.557 69.3915 194.481 69.651 194.481 69.5429C194.481 69.4352 193.615 66.1097 193.615 66.1097Z" fill="#69952F"/>
<path fill-rule="evenodd" clip-rule="evenodd" d="M193.615 66.1097C193.81 66.0878 194.762 66.131 194.762 66.131C194.762 66.131 194.696 64.2742 195.216 63.3022C195.735 62.3307 197.293 62.1793 198.742 62.2011C199.506 62.2123 200.529 62.4461 201.442 62.886C201.7 63.1276 201.917 63.3958 202.073 63.6907C202.777 65.0207 202.422 67.0361 200.874 67.5614C199.668 67.9703 197.613 68.192 196.622 68.3331C195.898 68.4365 194.972 68.5582 194.263 68.6329C194.007 67.6158 193.615 66.1097 193.615 66.1097Z" fill="#8CC63F"/>
<path fill-rule="evenodd" clip-rule="evenodd" d="M194.022 88.0781H199.471C202.086 88.0781 204.225 90.2133 204.225 92.8229V113.822C204.225 116.432 202.086 118.567 199.471 118.567H194.022C191.408 118.567 189.269 116.432 189.269 113.822V92.8229C189.269 90.2133 191.408 88.0781 194.022 88.0781Z" fill="#404041"/>
<path fill-rule="evenodd" clip-rule="evenodd" d="M117.999 88.0781H123.449C126.063 88.0781 128.202 90.2133 128.202 92.8229V113.822C128.202 116.432 126.063 118.567 123.449 118.567H117.999C115.385 118.567 113.246 116.432 113.246 113.822V92.8229C113.246 90.2133 115.385 88.0781 117.999 88.0781Z" fill="#404041"/>
<path fill-rule="evenodd" clip-rule="evenodd" d="M158.77 58.2841C158.598 58.626 158.769 42.3061 158.77 42.2212C158.771 42.3056 158.943 58.6256 158.77 58.2841ZM158.77 42.2188C151.97 42.5539 143.031 42.0577 137.618 43.4163C133.448 44.4626 130.79 47.0697 129.189 50.4922C127.295 54.54 124.537 60.6346 123.879 63.4445C122.949 67.4176 121.868 71.412 121.868 71.412C121.868 71.412 117.411 73.4632 116.33 74.7156C115.248 75.968 114.686 77.4581 114.123 80.8695C113.561 84.2813 113.69 93.0908 113.777 97.5823C113.863 102.073 114.728 104.19 116.07 105.744C120.742 111.16 142.244 112.475 158.77 111.963C175.296 112.475 196.798 111.16 201.47 105.744C202.811 104.19 203.676 102.073 203.763 97.5823C203.849 93.0913 203.979 84.2813 203.417 80.8695C202.854 77.4576 202.292 75.968 201.21 74.7156C200.129 73.4632 195.672 71.412 195.672 71.412C195.672 71.412 194.591 67.4176 193.661 63.4445C193.003 60.6346 190.245 54.54 188.351 50.4922C186.75 47.0697 184.092 44.4631 179.922 43.4163C174.51 42.0577 165.57 42.5544 158.77 42.2188Z" fill="#8CC63F"/>
<path d="M158.771 68.1094H125.165V86.5665H158.771V68.1094Z" fill="#A3D165"/>
<path fill-rule="evenodd" clip-rule="evenodd" d="M116.329 74.716C116.329 74.716 115.835 90.3904 116.171 90.9143C116.506 91.4381 121.472 92.3796 133.001 94.9921C144.531 97.6051 158.77 98.0586 158.77 98.0586V77.1107L122.457 69.1797C122.107 70.5291 121.867 71.4124 121.867 71.4124C121.867 71.4124 117.411 73.4632 116.329 74.716Z" fill="#A3D165"/>
<path fill-rule="evenodd" clip-rule="evenodd" d="M122.219 70.0922C122.386 69.7032 122.638 69.2802 123.015 68.9193C124.032 67.9478 125.09 67.6562 125.09 67.6562C135.567 71.6337 130.599 84.0092 158.771 86.5659C158.771 86.5659 144.828 91.853 135.389 85.3082C125.95 78.7634 121.869 73.7926 119.5 72.5975C120.751 71.9271 121.868 71.413 121.868 71.413C121.868 71.413 122.003 70.9134 122.219 70.0922Z" fill="#FFCA05"/>
<path d="M123.697 88.9851C127.254 88.9851 130.138 86.0547 130.138 82.4398C130.138 78.825 127.254 75.8945 123.697 75.8945C120.14 75.8945 117.256 78.825 117.256 82.4398C117.256 86.0547 120.14 88.9851 123.697 88.9851Z" fill="#404041"/>
<path fill-rule="evenodd" clip-rule="evenodd" d="M136.467 45.0051C130.893 47.3052 123.353 65.5765 125.089 67.6559C125.592 68.2593 191.946 68.2593 192.45 67.6559C194.185 65.5765 186.645 47.3052 181.071 45.0051C175.515 42.7117 141.949 42.7433 136.467 45.0051Z" fill="#404041"/>
<path fill-rule="evenodd" clip-rule="evenodd" d="M170.663 68.0814C182.604 68.0261 192.26 67.884 192.451 67.6555C194.187 65.5761 186.646 47.3048 181.073 45.0047C177.042 43.3414 158.282 42.9015 146.186 43.648L170.663 68.0814Z" fill="#6D6E70"/>
<path fill-rule="evenodd" clip-rule="evenodd" d="M121.488 99.5156L121.71 99.535C121.753 99.5331 121.796 99.5321 121.839 99.5321C122.049 99.5321 122.254 99.5554 122.451 99.6L135.375 100.725L137.452 106.987L122.18 105.519L122.177 105.493C122.066 105.507 121.953 105.514 121.839 105.514C120.246 105.514 118.954 104.175 118.954 102.523C118.954 100.994 120.062 99.732 121.492 99.5544L121.488 99.5156Z" fill="#404041"/>
<path fill-rule="evenodd" clip-rule="evenodd" d="M196.052 99.5156L195.83 99.535C195.787 99.5331 195.744 99.5321 195.7 99.5321C195.491 99.5321 195.285 99.5554 195.088 99.6L182.164 100.725L180.088 106.987L195.36 105.519L195.363 105.493C195.474 105.507 195.586 105.514 195.7 105.514C197.294 105.514 198.585 104.175 198.585 102.523C198.585 100.994 197.477 99.732 196.047 99.5544L196.052 99.5156Z" fill="#404041"/>
<path fill-rule="evenodd" clip-rule="evenodd" d="M138.543 101.475C138.7 102.385 139.173 104.751 140.019 105.836C141.08 107.196 142.594 107.779 144.021 107.996C149.155 108.772 168.384 108.772 173.518 107.996C174.946 107.78 176.46 107.197 177.52 105.836C178.366 104.75 178.84 102.385 178.997 101.475C179.104 100.852 178.735 100.871 177.964 100.832C171.221 101.661 145.624 101.251 139.577 100.832C138.805 100.871 138.435 100.852 138.543 101.475Z" fill="#404041"/>
<path fill-rule="evenodd" clip-rule="evenodd" d="M123.714 88.4691C127.157 88.4691 129.966 85.666 129.966 82.2285C129.966 78.7914 127.158 75.9883 123.714 75.9883C120.271 75.9883 117.463 78.7914 117.463 82.2285C117.463 85.666 120.271 88.4691 123.714 88.4691Z" fill="#BBBDBF"/>
<path fill-rule="evenodd" clip-rule="evenodd" d="M123.715 88.0388C126.92 88.0388 129.534 85.4293 129.534 82.2303C129.534 79.031 126.92 76.4219 123.715 76.4219C120.51 76.4219 117.896 79.031 117.896 82.2303C117.896 85.4293 120.51 88.0388 123.715 88.0388Z" fill="#E6E7E8"/>
<path fill-rule="evenodd" clip-rule="evenodd" d="M123.715 82.5121C125.115 82.5121 126.257 81.3722 126.257 79.9748C126.257 78.5774 125.115 77.4375 123.715 77.4375C122.315 77.4375 121.173 78.5774 121.173 79.9748C121.173 81.3722 122.315 82.5121 123.715 82.5121Z" fill="#D0D2D3"/>
<path fill-rule="evenodd" clip-rule="evenodd" d="M116.811 92.0818L124.458 93.5636C124.919 93.6528 125.254 94.1083 125.204 94.5759L125.121 95.3374C125.07 95.805 124.652 96.1145 124.191 96.0252L116.544 94.5434C116.084 94.4541 115.748 93.9987 115.799 93.5311L115.882 92.7696C115.932 92.3015 116.35 91.9925 116.811 92.0818Z" fill="#F48245"/>
<path fill-rule="evenodd" clip-rule="evenodd" d="M200.73 92.0818L193.084 93.5636C192.622 93.6528 192.287 94.1083 192.338 94.5759L192.421 95.3374C192.471 95.805 192.89 96.1145 193.351 96.0252L200.997 94.5434C201.458 94.4541 201.794 93.9987 201.743 93.5311L201.661 92.7696C201.609 92.3015 201.191 91.9925 200.73 92.0818Z" fill="#F48245"/>
<path fill-rule="evenodd" clip-rule="evenodd" d="M122.15 104.441C123.222 104.441 124.097 103.568 124.097 102.498C124.097 101.427 123.222 100.555 122.15 100.555C121.078 100.555 120.203 101.428 120.203 102.498C120.203 103.568 121.077 104.441 122.15 104.441Z" fill="#E6E7E8"/>
<path fill-rule="evenodd" clip-rule="evenodd" d="M195.389 104.441C196.461 104.441 197.336 103.568 197.336 102.498C197.336 101.427 196.461 100.555 195.389 100.555C194.317 100.555 193.442 101.428 193.442 102.498C193.442 103.568 194.317 104.441 195.389 104.441Z" fill="#E6E7E8"/>
<path fill-rule="evenodd" clip-rule="evenodd" d="M192.376 67.6849C192.417 67.6756 192.442 67.666 192.451 67.6562C192.451 67.6562 193.509 67.9478 194.526 68.9193C194.903 69.2802 195.154 69.7027 195.322 70.0917V70.0922C195.444 70.5583 195.541 70.9211 195.601 71.1471C186.986 69.5465 186.674 78.8745 179.97 83.1594C176.593 85.3184 173.369 85.9644 168.23 86.2535C168.074 86.4408 167.839 86.5601 167.578 86.5601H158.97L158.77 86.5659C158.75 86.564 158.731 86.562 158.711 86.5601H158.829C158.81 86.562 158.79 86.564 158.77 86.5659L158.571 86.5601H149.963C149.702 86.5601 149.467 86.4408 149.311 86.2535C144.172 85.9644 140.948 85.3184 137.57 83.1594C130.867 78.8745 130.556 69.5465 121.939 71.1471C122 70.9206 122.096 70.5583 122.219 70.0922C122.219 70.0917 122.219 70.0917 122.219 70.0917C122.386 69.7027 122.638 69.2802 123.016 68.9193C124.032 67.9478 125.091 67.6562 125.091 67.6562C125.099 67.666 125.124 67.6756 125.165 67.6849C136.522 72.0707 132.21 85.7602 158.777 85.6812C185.553 85.6007 180.937 72.1022 192.376 67.6849Z" fill="#A3D165"/>
<path fill-rule="evenodd" clip-rule="evenodd" d="M193.778 88.778C197.325 88.778 200.219 85.8376 200.219 82.2328C200.219 78.6279 197.325 75.6875 193.778 75.6875C190.231 75.6875 187.337 78.6279 187.337 82.2328C187.337 85.8376 190.231 88.778 193.778 88.778Z" fill="#404041"/>
<path fill-rule="evenodd" clip-rule="evenodd" d="M193.797 88.266C197.24 88.266 200.049 85.4624 200.049 82.0253C200.049 78.5883 197.24 75.7852 193.797 75.7852C190.354 75.7852 187.546 78.5883 187.546 82.0253C187.546 85.4624 190.354 88.266 193.797 88.266Z" fill="#BBBDBF"/>
<path fill-rule="evenodd" clip-rule="evenodd" d="M193.797 87.8318C197.003 87.8318 199.616 85.2227 199.616 82.0233C199.616 78.8239 197.003 76.2148 193.797 76.2148C190.592 76.2148 187.979 78.8239 187.979 82.0233C187.979 85.2227 190.592 87.8318 193.797 87.8318Z" fill="#E6E7E8"/>
<path fill-rule="evenodd" clip-rule="evenodd" d="M193.798 82.309C195.198 82.309 196.34 81.1691 196.34 79.7717C196.34 78.3742 195.198 77.2344 193.798 77.2344C192.398 77.2344 191.256 78.3742 191.256 79.7717C191.256 81.1691 192.398 82.309 193.798 82.309Z" fill="#D0D2D3"/>
<path fill-rule="evenodd" clip-rule="evenodd" d="M121.868 71.4128C130.466 69.7166 130.769 79.3711 137.473 83.656C142.548 86.9 147.372 86.5609 158.771 86.8947C170.17 86.5609 174.994 86.8995 180.069 83.656C186.772 79.3711 187.076 69.7161 195.673 71.4128C195.673 71.4128 195.648 71.3197 195.602 71.1475C186.986 69.5468 186.675 78.8748 179.971 83.1598C174.897 86.4038 170.169 86.2326 158.77 86.5663C147.371 86.2326 142.645 86.4038 137.57 83.1598C130.866 78.8748 130.555 69.5468 121.939 71.1475C121.893 71.3197 121.868 71.4128 121.868 71.4128Z" fill="#404041"/>
<path fill-rule="evenodd" clip-rule="evenodd" d="M157.876 86.8654C147.115 86.5724 142.413 86.8096 137.472 83.6519C130.769 79.367 130.465 69.7121 121.867 71.4088C121.867 71.4088 120.751 71.9229 119.5 72.5933C118.252 73.2622 116.87 74.0872 116.329 74.7124C116.329 74.7124 116.037 83.9667 116.054 88.4913C116.06 89.8552 116.093 90.7894 116.171 90.9107C116.455 91.355 120.072 92.1 128.202 93.9112C129.656 94.2347 131.253 94.5927 133.001 94.989C144.531 97.6019 158.77 98.0555 158.77 98.0555V86.8916C158.468 86.8819 158.17 86.8731 157.876 86.8654ZM123.611 75.8897C123.64 75.8892 123.668 75.8892 123.696 75.8892C126.892 75.8892 129.545 78.2548 130.05 81.3567C130.108 81.7073 130.137 82.0673 130.137 82.4349C130.137 85.3326 128.285 87.7904 125.717 88.6518C125.081 88.8652 124.402 88.9802 123.696 88.9802C122.502 88.9802 121.383 88.6494 120.424 88.0731C118.528 86.9343 117.256 84.8354 117.256 82.4349C117.256 78.8485 120.093 75.9357 123.611 75.8897Z" fill="#A3D165"/>
<path fill-rule="evenodd" clip-rule="evenodd" d="M159.665 86.8654C170.426 86.5724 175.128 86.8096 180.068 83.6519C186.772 79.367 187.075 69.7121 195.673 71.4088C195.673 71.4088 196.79 71.9229 198.041 72.5933C199.289 73.2622 200.671 74.0872 201.211 74.7124C201.211 74.7124 201.503 83.9667 201.486 88.4913C201.481 89.8552 201.448 90.7894 201.37 90.9107C201.085 91.355 197.469 92.1 189.338 93.9112C187.885 94.2347 186.288 94.5927 184.539 94.989C173.01 97.6019 158.771 98.0555 158.771 98.0555V86.8916C159.073 86.8819 159.371 86.8731 159.665 86.8654ZM193.93 75.8897C193.901 75.8892 193.873 75.8892 193.845 75.8892C190.649 75.8892 187.997 78.2548 187.491 81.3567C187.434 81.7073 187.404 82.0673 187.404 82.4349C187.404 85.3326 189.257 87.7904 191.824 88.6518C192.46 88.8652 193.139 88.9802 193.845 88.9802C195.04 88.9802 196.159 88.6494 197.118 88.0731C199.014 86.9343 200.286 84.8354 200.286 82.4349C200.285 78.8485 197.448 75.9357 193.93 75.8897Z" fill="#A3D165"/>
<path d="M73.2086 39.6719V76.8214C74.9419 76.8214 76.3486 75.4191 76.3486 73.6889V42.8048C76.3486 41.0746 74.9419 39.6719 73.2086 39.6719Z" fill="#404041"/>
<path d="M63.9638 25.2227H33.1939C28.1039 25.2227 23.9639 29.9718 23.9639 35.8074V114.714H73.1938V35.8069C73.1933 29.9713 69.0518 25.2227 63.9638 25.2227Z" fill="#00558D"/>
<path d="M63.9643 28.5078H33.1945C29.6133 28.5078 26.6982 32.0307 26.6982 36.3617V114.716H70.4587V36.3617C70.4582 32.0307 67.5456 28.5078 63.9643 28.5078Z" fill="#338DC9"/>
<path d="M31.691 41.4415C31.691 37.595 34.2799 34.4655 37.4608 34.4655H64.7908C65.3899 34.4655 65.9677 34.5771 66.511 34.7827C65.7996 31.9054 63.594 29.8008 60.9856 29.8008H33.6555C30.4747 29.8008 27.8857 32.9298 27.8857 36.7768V114.715H31.6905V41.4415H31.691Z" fill="#66AAD7"/>
<path d="M64.1504 37.9922V58.3594H63.7422V38.2929H33.2119V37.9922H64.1504Z" fill="#2E3E45"/>
<path d="M63.7422 38.293H33.2119V58.3595H63.7422V38.293Z" fill="#37474F"/>
<path d="M85.9839 112.027H11.1684C6.18484 112.027 2.01953 114.715 0.915039 118.324H96.2393C95.1343 114.715 90.967 112.027 85.9839 112.027Z" fill="#404041"/>
<path d="M58.7492 45.457H39.7012V53.0626H58.7492V45.457Z" fill="#546E7A"/>
<path d="M59.8378 47.6328H58.2051V50.8923H59.8378V47.6328Z" fill="#546E7A"/>
<path d="M41.8388 46.2734H40.418V52.2492H41.8388V46.2734Z" fill="#8CC63F"/>
<path d="M43.6249 46.2734H42.2041V52.2492H43.6249V46.2734Z" fill="#8CC63F"/>
<path d="M45.4111 46.2734H43.9902V52.2492H45.4111V46.2734Z" fill="#8CC63F"/>
<path d="M47.1982 46.2734H45.7773V52.2492H47.1982V46.2734Z" fill="#8CC63F"/>
<path d="M48.9853 46.2734H47.5645V52.2492H48.9853V46.2734Z" fill="#8CC63F"/>
<path d="M50.7714 46.2734H49.3506V52.2492H50.7714V46.2734Z" fill="#8CC63F"/>
<path d="M52.5585 46.2734H51.1377V52.2492H52.5585V46.2734Z" fill="#8CC63F"/>
<path d="M54.3456 46.2734H52.9248V52.2492H54.3456V46.2734Z" fill="#1D262D"/>
<path d="M56.1318 46.2734H54.7109V52.2492H56.1318V46.2734Z" fill="#1D262D"/>
<path d="M57.9179 46.2734H56.4971V52.2492H57.9179V46.2734Z" fill="#1D262D"/>
<path fill-rule="evenodd" clip-rule="evenodd" d="M49.1423 65.418C54.3377 65.418 58.5492 69.4919 58.5492 74.517C58.5492 79.5421 54.3372 83.6161 49.1423 83.6161C43.9468 83.6161 39.7354 79.5421 39.7354 74.517C39.7349 69.4919 43.9468 65.418 49.1423 65.418ZM49.1423 66.6553C44.6533 66.6553 41.0143 70.1753 41.0143 74.517C41.0143 78.8587 44.6533 82.3787 49.1423 82.3787C53.6312 82.3787 57.2702 78.8587 57.2702 74.517C57.2697 70.1753 53.6312 66.6553 49.1423 66.6553Z" fill="#F2F2F2"/>
<path fill-rule="evenodd" clip-rule="evenodd" d="M50.6017 66.3477C50.091 66.3477 45.9164 66.384 45.9164 66.384C45.9164 66.384 48.1405 72.7353 47.8854 72.6625C47.6303 72.5898 44.4941 72.226 44.4941 72.226L50.8388 82.4174L49.0521 73.9731L52.662 74.1914L50.6017 66.3477Z" fill="#F2F2F2"/>
</svg>
