<svg width="344" height="179" viewBox="0 0 344 179" fill="none" xmlns="http://www.w3.org/2000/svg">
<mask id="mask0_71_171" style="mask-type:alpha" maskUnits="userSpaceOnUse" x="0" y="0" width="344" height="179">
<path fill-rule="evenodd" clip-rule="evenodd" d="M50.2895 50.7621C82.4963 18.2652 126.188 -3.33786e-06 171.756 0C217.324 3.33786e-06 261.015 18.2653 293.222 50.7622C325.427 83.2575 343.512 127.321 343.512 173.256C343.512 176.159 341.159 178.512 338.256 178.512C335.353 178.512 333 176.159 333 173.256C333 130.078 316 88.6785 285.756 58.1616C255.513 27.6463 214.505 10.5116 171.756 10.5116C129.007 10.5116 87.9985 27.6463 57.7556 58.1616C27.5112 88.6785 10.5116 130.078 10.5116 173.256C10.5116 176.159 8.15852 178.512 5.25582 178.512C2.35311 178.512 -4.76837e-07 176.159 0 173.256C6.67572e-06 127.321 18.0843 83.2575 50.2895 50.7621Z" fill="#DADCDD"/>
</mask>
<g mask="url(#mask0_71_171)">
<path d="M-12.7441 180.756C-12.7441 131.823 6.6942 84.8951 41.2947 50.2947C75.8951 15.6942 122.823 -3.74414 171.756 -3.74414C220.688 -3.74415 267.617 15.6942 302.217 50.2946C336.817 84.8951 356.256 131.823 356.256 180.756L171.756 180.756L-12.7441 180.756Z" fill="#DDF0DA"/>
<path d="M0.255859 178.756C0.255862 152.786 5.46449 127.115 15.5337 103.458C25.6029 79.8014 40.3008 58.7041 58.6452 41.5758C76.9896 24.4475 98.558 11.6828 121.909 4.13454C145.26 -3.4137 169.857 -5.5716 194.054 -2.19496L171.756 178.756L0.255859 178.756Z" fill="#55B648"/>
</g>
</svg>
