<svg width="93" height="93" viewBox="0 0 93 93" fill="none" xmlns="http://www.w3.org/2000/svg">
<g style="mix-blend-mode:multiply" opacity="0.3">
<ellipse cx="45.9188" cy="85.6609" rx="27.3188" ry="2.325" fill="url(#paint0_radial_4471_26223)"/>
</g>
<path fill-rule="evenodd" clip-rule="evenodd" d="M46.496 12.7715L58.5822 19.7514L70.6684 26.7313V40.691V54.6411L58.5822 61.621L46.496 68.6009L34.4001 61.621L22.314 54.6411V40.691V26.7313L34.4001 19.7514L46.496 12.7715Z" fill="url(#paint1_radial_4471_26223)"/>
<path fill-rule="evenodd" clip-rule="evenodd" d="M22.314 26.7324L25.6631 28.6643V52.7104L22.314 54.6423V26.7324Z" fill="url(#paint2_radial_4471_26223)"/>
<path fill-rule="evenodd" clip-rule="evenodd" d="M70.668 26.7324L67.3188 28.6643V52.7104L70.668 54.6423V26.7324Z" fill="url(#paint3_radial_4471_26223)"/>
<path fill-rule="evenodd" clip-rule="evenodd" d="M70.6685 26.7313L67.3193 28.6631L46.4961 16.6352V12.7715L70.6685 26.7313Z" fill="url(#paint4_radial_4471_26223)"/>
<path fill-rule="evenodd" clip-rule="evenodd" d="M46.496 68.6026V64.7389L25.6631 52.7109L22.314 54.6428L46.496 68.6026Z" fill="url(#paint5_radial_4471_26223)"/>
<path fill-rule="evenodd" clip-rule="evenodd" d="M22.314 26.7313L25.6631 28.6631L46.496 16.6352V12.7715L22.314 26.7313Z" fill="url(#paint6_radial_4471_26223)"/>
<path fill-rule="evenodd" clip-rule="evenodd" d="M46.4961 68.6026V64.7389L67.3193 52.7109L70.6685 54.6428L46.4961 68.6026Z" fill="url(#paint7_radial_4471_26223)"/>
<path fill-rule="evenodd" clip-rule="evenodd" d="M46.4967 14.9766L57.6218 21.4128L68.7566 27.8394V40.6925V53.5456L57.6218 59.9721L46.4967 66.3987L35.3619 59.9721L24.2271 53.5456V40.6925V27.8394L35.3619 21.4128L46.4967 14.9766Z" fill="url(#paint8_radial_4471_26223)"/>
<path style="mix-blend-mode:screen" fill-rule="evenodd" clip-rule="evenodd" d="M46.4962 13.3262L46.2146 14.7338L33.2354 22.6359L46.4865 15.3454L55.8059 20.3255L46.7874 14.7144L46.4962 13.3262Z" fill="url(#paint9_radial_4471_26223)"/>
<path fill-rule="evenodd" clip-rule="evenodd" d="M46.4943 5.8125L61.5996 14.5301L76.7049 23.2477V58.118L61.5996 66.8356L46.4943 75.5532L31.389 66.8356L16.2837 58.118V23.2477L31.389 14.5301L46.4943 5.8125ZM46.4943 12.773L58.5805 19.7529L70.6667 26.7328V54.6523L58.5805 61.6322L46.4943 68.6121L34.4081 61.6322L22.3219 54.6523V26.7328L34.4081 19.7529L46.4943 12.773Z" fill="#485F72"/>
<path fill-rule="evenodd" clip-rule="evenodd" d="M32.8941 17.1415C37.4277 14.5301 41.9612 11.909 46.485 9.29765V5.82227L31.3797 14.5399L16.2744 23.2574L19.2838 24.9951C23.8174 22.3837 28.3509 19.7626 32.8747 17.1415H32.8941Z" fill="url(#paint10_radial_4471_26223)"/>
<path fill-rule="evenodd" clip-rule="evenodd" d="M46.4943 9.28711C41.9607 11.8985 37.4272 14.5196 32.9034 17.131C28.3699 19.7521 23.8363 22.3635 19.3125 24.9846L22.3219 26.7223L34.4081 19.7424L46.4943 12.7625V9.28711Z" fill="url(#paint11_radial_4471_26223)"/>
<path fill-rule="evenodd" clip-rule="evenodd" d="M46.495 9.28788C51.0285 11.8993 55.5621 14.5204 60.0859 17.1318C64.6194 19.7529 69.153 22.3643 73.6768 24.9854L76.6862 23.2477L61.5809 14.5301L46.4756 5.8125V9.28788H46.495Z" fill="url(#paint12_radial_4471_26223)"/>
<path fill-rule="evenodd" clip-rule="evenodd" d="M60.086 17.1408C55.5525 14.5294 51.0189 11.9083 46.4951 9.29688V12.7723L58.5813 19.7522L70.6675 26.732L73.6769 24.9943C69.1434 22.383 64.6098 19.7619 60.086 17.1408Z" fill="url(#paint13_radial_4471_26223)"/>
<path fill-rule="evenodd" clip-rule="evenodd" d="M70.668 26.7318V54.6514L73.6774 56.3891V24.9941L70.668 26.7318Z" fill="url(#paint14_radial_4471_26223)"/>
<path fill-rule="evenodd" clip-rule="evenodd" d="M73.6855 24.9955V56.3904L76.695 58.1281V23.2578L73.6855 24.9955Z" fill="url(#paint15_radial_4471_26223)"/>
<path fill-rule="evenodd" clip-rule="evenodd" d="M19.3034 40.693V24.9955L16.2939 23.2578V58.1281L19.3034 56.3904V40.693Z" fill="url(#paint16_radial_4471_26223)"/>
<path fill-rule="evenodd" clip-rule="evenodd" d="M19.3032 24.9941V56.3891L22.3126 54.6514V26.7318L19.3032 24.9941Z" fill="url(#paint17_radial_4471_26223)"/>
<path fill-rule="evenodd" clip-rule="evenodd" d="M34.3988 61.6225L22.3126 54.6426L19.3032 56.3803C23.8368 58.9917 28.3703 61.6128 32.8941 64.2339C37.4276 66.8452 41.9612 69.4664 46.485 72.0875V68.6121L34.3988 61.6322V61.6225Z" fill="url(#paint18_radial_4471_26223)"/>
<path fill-rule="evenodd" clip-rule="evenodd" d="M32.8942 64.2344C28.3607 61.6133 23.8272 59.002 19.3034 56.3809L16.2939 58.1186L31.3992 66.8361L46.5046 75.5537V72.0783C41.971 69.4572 37.4375 66.8458 32.9137 64.2247L32.8942 64.2344Z" fill="url(#paint19_radial_4471_26223)"/>
<path fill-rule="evenodd" clip-rule="evenodd" d="M58.5813 61.6205L46.4951 68.6003V72.0757C51.0286 69.4546 55.5622 66.8432 60.086 64.2221C64.6195 61.601 69.1531 58.9897 73.6769 56.3686L70.6675 54.6309L58.5813 61.6108V61.6205Z" fill="url(#paint20_radial_4471_26223)"/>
<path fill-rule="evenodd" clip-rule="evenodd" d="M60.086 64.2345C55.5525 66.8459 51.0189 69.467 46.4951 72.0881V75.5635L61.6004 66.8459L76.7057 58.1283L73.6963 56.3906C69.1628 59.002 64.6292 61.6231 60.1054 64.2442L60.086 64.2345Z" fill="url(#paint21_radial_4471_26223)"/>
<path fill-rule="evenodd" clip-rule="evenodd" d="M53.8525 42.9905L61.1625 35.8262L60.5024 36.0397L53.5225 42.8837L53.8525 42.9905Z" fill="#999999"/>
<path fill-rule="evenodd" clip-rule="evenodd" d="M46.4947 56.5901L51.2418 47.028L61.8038 45.465L54.1735 37.9997L55.95 27.4668L46.4947 32.4178L37.0296 27.4668L38.8061 37.9997L31.1758 45.465L41.7476 47.028L46.4947 56.5901Z" fill="#7C7C7C"/>
<path fill-rule="evenodd" clip-rule="evenodd" d="M46.4947 40.4949L31.1758 45.4653L38.8061 38L46.4947 40.4949Z" fill="url(#paint22_radial_4471_26223)"/>
<path fill-rule="evenodd" clip-rule="evenodd" d="M31.1758 45.4665L46.4947 40.4961L41.7476 47.0294L31.1758 45.4665Z" fill="url(#paint23_radial_4471_26223)"/>
<path fill-rule="evenodd" clip-rule="evenodd" d="M41.7471 47.0294L46.4942 40.4961V56.5916L41.7471 47.0294Z" fill="url(#paint24_radial_4471_26223)"/>
<path fill-rule="evenodd" clip-rule="evenodd" d="M46.4961 56.5916V40.4961L51.2432 47.0294L46.4961 56.5916Z" fill="url(#paint25_radial_4471_26223)"/>
<path fill-rule="evenodd" clip-rule="evenodd" d="M51.2432 47.0294L46.4961 40.4961L61.8053 45.4665L51.2432 47.0294Z" fill="url(#paint26_radial_4471_26223)"/>
<path fill-rule="evenodd" clip-rule="evenodd" d="M61.8053 45.4653L46.4961 40.4949L54.1749 38L61.8053 45.4653Z" fill="url(#paint27_radial_4471_26223)"/>
<path fill-rule="evenodd" clip-rule="evenodd" d="M54.1749 37.9997L46.4961 40.4946L55.9515 27.4668L54.1749 37.9997Z" fill="url(#paint28_radial_4471_26223)"/>
<path fill-rule="evenodd" clip-rule="evenodd" d="M55.9515 27.4668L46.4961 40.4946V32.4178L55.9515 27.4668Z" fill="url(#paint29_radial_4471_26223)"/>
<path fill-rule="evenodd" clip-rule="evenodd" d="M46.4963 32.4178V40.4946L37.0312 27.4668L46.4963 32.4178Z" fill="url(#paint30_radial_4471_26223)"/>
<path fill-rule="evenodd" clip-rule="evenodd" d="M37.0312 27.4668L46.4963 40.4946L38.8078 37.9997L37.0312 27.4668Z" fill="url(#paint31_radial_4471_26223)"/>
<path fill-rule="evenodd" clip-rule="evenodd" d="M46.4953 22.3711L51.8637 33.205L63.8237 34.9621L55.1838 43.4175L57.203 55.3387L46.4953 49.7373L35.7779 55.3387L37.7971 43.4175L29.1572 34.9621L41.1172 33.205L46.4953 22.3711Z" fill="#999999"/>
<path fill-rule="evenodd" clip-rule="evenodd" d="M46.4953 40.5954L29.1572 34.9648L37.7971 43.4203L46.4953 40.5954Z" fill="url(#paint32_radial_4471_26223)"/>
<path fill-rule="evenodd" clip-rule="evenodd" d="M29.1572 34.9622L46.4953 40.5927L41.1172 33.2051L29.1572 34.9622Z" fill="url(#paint33_radial_4471_26223)"/>
<path fill-rule="evenodd" clip-rule="evenodd" d="M41.1182 33.205L46.4963 40.5926V22.3711L41.1182 33.205Z" fill="url(#paint34_radial_4471_26223)"/>
<path fill-rule="evenodd" clip-rule="evenodd" d="M46.4961 22.3711V40.5926L51.8645 33.205L46.4961 22.3711Z" fill="url(#paint35_radial_4471_26223)"/>
<path fill-rule="evenodd" clip-rule="evenodd" d="M51.8645 33.2051L46.4961 40.5927L63.8245 34.9622L51.8645 33.2051Z" fill="url(#paint36_radial_4471_26223)"/>
<path fill-rule="evenodd" clip-rule="evenodd" d="M63.8245 34.9648L46.4961 40.5954L55.1846 43.4203L63.8245 34.9648Z" fill="url(#paint37_radial_4471_26223)"/>
<path fill-rule="evenodd" clip-rule="evenodd" d="M55.1846 43.4187L46.4961 40.5938L57.2038 55.3399L55.1846 43.4187Z" fill="url(#paint38_radial_4471_26223)"/>
<path fill-rule="evenodd" clip-rule="evenodd" d="M57.2038 55.3399L46.4961 40.5938V49.7385L57.2038 55.3399Z" fill="url(#paint39_radial_4471_26223)"/>
<path fill-rule="evenodd" clip-rule="evenodd" d="M46.4952 49.7385V40.5938L35.7778 55.3399L46.4952 49.7385Z" fill="url(#paint40_radial_4471_26223)"/>
<path fill-rule="evenodd" clip-rule="evenodd" d="M35.7778 55.3399L46.4952 40.5938L37.7971 43.4187L35.7778 55.3399Z" fill="url(#paint41_radial_4471_26223)"/>
<defs>
<radialGradient id="paint0_radial_4471_26223" cx="0" cy="0" r="1" gradientUnits="userSpaceOnUse" gradientTransform="translate(45.9188 85.6609) scale(27.3188 2.325)">
<stop stop-color="#737373"/>
<stop offset="1" stop-color="#D9D9D9"/>
</radialGradient>
<radialGradient id="paint1_radial_4471_26223" cx="0" cy="0" r="1" gradientUnits="userSpaceOnUse" gradientTransform="translate(38.5065 23.7413) scale(46.0537)">
<stop stop-color="#5A7593"/>
<stop offset="0.67" stop-color="#32415E"/>
<stop offset="1" stop-color="#1F2939"/>
</radialGradient>
<radialGradient id="paint2_radial_4471_26223" cx="0" cy="0" r="1" gradientUnits="userSpaceOnUse" gradientTransform="translate(-13.799 24.3346) scale(57.9069 57.9069)">
<stop stop-color="#E4F6FF"/>
<stop offset="0.34" stop-color="#9FC9E1"/>
<stop offset="1" stop-color="#4E5A72"/>
</radialGradient>
<radialGradient id="paint3_radial_4471_26223" cx="0" cy="0" r="1" gradientUnits="userSpaceOnUse" gradientTransform="translate(52.0679 33.9938) rotate(-180) scale(55.0916 55.0916)">
<stop stop-color="#5F7187"/>
<stop offset="1" stop-color="#2F3A4F"/>
</radialGradient>
<radialGradient id="paint4_radial_4471_26223" cx="0" cy="0" r="1" gradientUnits="userSpaceOnUse" gradientTransform="translate(51.6937 9.98862) rotate(120) scale(59.8582 59.8582)">
<stop stop-color="#687C94"/>
<stop offset="1" stop-color="#2F3A4F"/>
</radialGradient>
<radialGradient id="paint5_radial_4471_26223" cx="0" cy="0" r="1" gradientUnits="userSpaceOnUse" gradientTransform="translate(44.6774 62.2784) rotate(-60) scale(65.4304 65.4304)">
<stop stop-color="#485A77"/>
<stop offset="1" stop-color="#1F2939"/>
</radialGradient>
<radialGradient id="paint6_radial_4471_26223" cx="0" cy="0" r="1" gradientUnits="userSpaceOnUse" gradientTransform="translate(31.6325 12.0382) rotate(60) scale(46.5197 46.5197)">
<stop stop-color="#B9D7EB"/>
<stop offset="0.34" stop-color="#A9C2E1"/>
<stop offset="1" stop-color="#4E5A72"/>
</radialGradient>
<radialGradient id="paint7_radial_4471_26223" cx="0" cy="0" r="1" gradientUnits="userSpaceOnUse" gradientTransform="translate(39.832 34.7858) rotate(-120) scale(44.083 44.083)">
<stop stop-color="#2F3D4D"/>
<stop offset="0.67" stop-color="#2B364A"/>
<stop offset="1" stop-color="#252C39"/>
</radialGradient>
<radialGradient id="paint8_radial_4471_26223" cx="0" cy="0" r="1" gradientUnits="userSpaceOnUse" gradientTransform="translate(35.857 20.8206) scale(52.0531 52.0531)">
<stop stop-color="#90AAC0"/>
<stop offset="0.41" stop-color="#455975"/>
<stop offset="1" stop-color="#283548"/>
</radialGradient>
<radialGradient id="paint9_radial_4471_26223" cx="0" cy="0" r="1" gradientUnits="userSpaceOnUse" gradientTransform="translate(40.9822 12.3942) scale(34.6956 34.6956)">
<stop stop-color="#E0FFFF"/>
<stop offset="0.09" stop-color="#BAD5D4"/>
<stop offset="0.23" stop-color="#899F9C"/>
<stop offset="0.37" stop-color="#5F716C"/>
<stop offset="0.5" stop-color="#3D4B45"/>
<stop offset="0.63" stop-color="#222D27"/>
<stop offset="0.76" stop-color="#0F1811"/>
<stop offset="0.89" stop-color="#030C04"/>
<stop offset="1" stop-color="#000800"/>
</radialGradient>
<radialGradient id="paint10_radial_4471_26223" cx="0" cy="0" r="1" gradientUnits="userSpaceOnUse" gradientTransform="translate(36.4375 11.7925) scale(39.6174)">
<stop stop-color="#E6F0FF"/>
<stop offset="1" stop-color="#99B2D6"/>
</radialGradient>
<radialGradient id="paint11_radial_4471_26223" cx="0" cy="0" r="1" gradientUnits="userSpaceOnUse" gradientTransform="translate(47.1059 28.9648) scale(36.2294 36.2294)">
<stop stop-color="#637694"/>
<stop offset="1" stop-color="#294161"/>
</radialGradient>
<radialGradient id="paint12_radial_4471_26223" cx="0" cy="0" r="1" gradientUnits="userSpaceOnUse" gradientTransform="translate(53.339 25.4125) scale(39.3068 39.3068)">
<stop stop-color="#CCD8EB"/>
<stop offset="1" stop-color="#4C6E9C"/>
</radialGradient>
<radialGradient id="paint13_radial_4471_26223" cx="0" cy="0" r="1" gradientUnits="userSpaceOnUse" gradientTransform="translate(50.0773 35.1875) scale(42.7725 42.7725)">
<stop stop-color="#95B0DE"/>
<stop offset="1" stop-color="#2B3E57"/>
</radialGradient>
<radialGradient id="paint14_radial_4471_26223" cx="0" cy="0" r="1" gradientUnits="userSpaceOnUse" gradientTransform="translate(56.2131 29.4597) scale(40.4232 40.4232)">
<stop stop-color="#CCD8EB"/>
<stop offset="1" stop-color="#4C6E9C"/>
</radialGradient>
<radialGradient id="paint15_radial_4471_26223" cx="0" cy="0" r="1" gradientUnits="userSpaceOnUse" gradientTransform="translate(51.3771 24.4519) scale(43.0054 43.0055)">
<stop stop-color="#7B92B8"/>
<stop offset="1" stop-color="#2E435E"/>
</radialGradient>
<radialGradient id="paint16_radial_4471_26223" cx="0" cy="0" r="1" gradientUnits="userSpaceOnUse" gradientTransform="translate(11.0323 32.3055) scale(42.7628 42.7628)">
<stop stop-color="#CCD8EB"/>
<stop offset="1" stop-color="#4C6E9C"/>
</radialGradient>
<radialGradient id="paint17_radial_4471_26223" cx="0" cy="0" r="1" gradientUnits="userSpaceOnUse" gradientTransform="translate(47.5917 43.5263) scale(41.9473 41.9473)">
<stop stop-color="#95B0DE"/>
<stop offset="1" stop-color="#2B3E57"/>
</radialGradient>
<radialGradient id="paint18_radial_4471_26223" cx="0" cy="0" r="1" gradientUnits="userSpaceOnUse" gradientTransform="translate(43.1746 54.1669) scale(41.9182 41.9182)">
<stop stop-color="#CCD8EB"/>
<stop offset="1" stop-color="#4C6E9C"/>
</radialGradient>
<radialGradient id="paint19_radial_4471_26223" cx="0" cy="0" r="1" gradientUnits="userSpaceOnUse" gradientTransform="translate(45.4561 39.4602) scale(44.6655 44.6655)">
<stop stop-color="#95B0DE"/>
<stop offset="1" stop-color="#2B3E57"/>
</radialGradient>
<radialGradient id="paint20_radial_4471_26223" cx="0" cy="0" r="1" gradientUnits="userSpaceOnUse" gradientTransform="translate(67.6581 67.1539) scale(39.3456 39.3456)">
<stop stop-color="#E6F0FF"/>
<stop offset="1" stop-color="#99B2D6"/>
</radialGradient>
<radialGradient id="paint21_radial_4471_26223" cx="0" cy="0" r="1" gradientUnits="userSpaceOnUse" gradientTransform="translate(83.375 91.8143) scale(44.151 44.151)">
<stop stop-color="#637694"/>
<stop offset="1" stop-color="#2D3E54"/>
</radialGradient>
<radialGradient id="paint22_radial_4471_26223" cx="0" cy="0" r="1" gradientUnits="userSpaceOnUse" gradientTransform="translate(33.0785 46.4652) scale(12.0085 12.0085)">
<stop stop-color="#CEDBF0"/>
<stop offset="1" stop-color="#6D87AB"/>
</radialGradient>
<radialGradient id="paint23_radial_4471_26223" cx="0" cy="0" r="1" gradientUnits="userSpaceOnUse" gradientTransform="translate(30.0497 36.1179) scale(15.9013 15.9013)">
<stop stop-color="#A5BEE8"/>
<stop offset="1" stop-color="#46648A"/>
</radialGradient>
<radialGradient id="paint24_radial_4471_26223" cx="0" cy="0" r="1" gradientUnits="userSpaceOnUse" gradientTransform="translate(46.2806 63.1346) scale(13.921 13.921)">
<stop stop-color="#CCD8EB"/>
<stop offset="1" stop-color="#4C6E9C"/>
</radialGradient>
<radialGradient id="paint25_radial_4471_26223" cx="0" cy="0" r="1" gradientUnits="userSpaceOnUse" gradientTransform="translate(48.1076 56.6207) scale(11.6008 11.6008)">
<stop stop-color="#596D8F"/>
<stop offset="1" stop-color="#30455E"/>
</radialGradient>
<radialGradient id="paint26_radial_4471_26223" cx="0" cy="0" r="1" gradientUnits="userSpaceOnUse" gradientTransform="translate(55.7961 29.8758) scale(16.9983 16.9983)">
<stop stop-color="#7B92B8"/>
<stop offset="1" stop-color="#2E435E"/>
</radialGradient>
<radialGradient id="paint27_radial_4471_26223" cx="0" cy="0" r="1" gradientUnits="userSpaceOnUse" gradientTransform="translate(61.4267 31.224) scale(14.9888 14.9888)">
<stop stop-color="#CEDBF0"/>
<stop offset="1" stop-color="#6D87AB"/>
</radialGradient>
<radialGradient id="paint28_radial_4471_26223" cx="0" cy="0" r="1" gradientUnits="userSpaceOnUse" gradientTransform="translate(48.3309 23.2245) scale(12.0862 12.0862)">
<stop stop-color="#A5BEE8"/>
<stop offset="1" stop-color="#46648A"/>
</radialGradient>
<radialGradient id="paint29_radial_4471_26223" cx="0" cy="0" r="1" gradientUnits="userSpaceOnUse" gradientTransform="translate(51.68 24.3603) scale(8.92145 8.92145)">
<stop stop-color="#CEDBF0"/>
<stop offset="1" stop-color="#6D87AB"/>
</radialGradient>
<radialGradient id="paint30_radial_4471_26223" cx="0" cy="0" r="1" gradientUnits="userSpaceOnUse" gradientTransform="translate(40.128 26.0495) scale(6.65954 6.65953)">
<stop stop-color="#E6F0FF"/>
<stop offset="1" stop-color="#99B2D6"/>
</radialGradient>
<radialGradient id="paint31_radial_4471_26223" cx="0" cy="0" r="1" gradientUnits="userSpaceOnUse" gradientTransform="translate(40.1183 24.0594) scale(16.6488 16.6488)">
<stop stop-color="#7B92B8"/>
<stop offset="1" stop-color="#2E435E"/>
</radialGradient>
<radialGradient id="paint32_radial_4471_26223" cx="0" cy="0" r="1" gradientUnits="userSpaceOnUse" gradientTransform="translate(46.4856 27.0336) scale(25.9295 25.9294)">
<stop stop-color="#93A9CF"/>
<stop offset="1" stop-color="#4A5F7A"/>
</radialGradient>
<radialGradient id="paint33_radial_4471_26223" cx="0" cy="0" r="1" gradientUnits="userSpaceOnUse" gradientTransform="translate(36.3022 43.0585) scale(18.105)">
<stop stop-color="#CEDBF0"/>
<stop offset="1" stop-color="#6D87AB"/>
</radialGradient>
<radialGradient id="paint34_radial_4471_26223" cx="0" cy="0" r="1" gradientUnits="userSpaceOnUse" gradientTransform="translate(43.5742 26.9823) scale(12.2415)">
<stop stop-color="#E6F0FF"/>
<stop offset="1" stop-color="#99B2D6"/>
</radialGradient>
<radialGradient id="paint35_radial_4471_26223" cx="0" cy="0" r="1" gradientUnits="userSpaceOnUse" gradientTransform="translate(59.7472 21.2935) scale(23.3472 23.3472)">
<stop stop-color="#93A9CF"/>
<stop offset="1" stop-color="#4A5F7A"/>
</radialGradient>
<radialGradient id="paint36_radial_4471_26223" cx="0" cy="0" r="1" gradientUnits="userSpaceOnUse" gradientTransform="translate(63.4459 29.1472) scale(22.3473 22.3473)">
<stop stop-color="#CEDBF0"/>
<stop offset="1" stop-color="#6D87AB"/>
</radialGradient>
<radialGradient id="paint37_radial_4471_26223" cx="0" cy="0" r="1" gradientUnits="userSpaceOnUse" gradientTransform="translate(69.1735 26.4317) scale(45.3936 45.3935)">
<stop stop-color="#596D8F"/>
<stop offset="1" stop-color="#30455E"/>
</radialGradient>
<radialGradient id="paint38_radial_4471_26223" cx="0" cy="0" r="1" gradientUnits="userSpaceOnUse" gradientTransform="translate(65.6787 55.5729) scale(20.3475 20.3475)">
<stop stop-color="#CCD8EB"/>
<stop offset="1" stop-color="#587091"/>
</radialGradient>
<radialGradient id="paint39_radial_4471_26223" cx="0" cy="0" r="1" gradientUnits="userSpaceOnUse" gradientTransform="translate(59.5919 49.7094) scale(53.5675 53.5675)">
<stop stop-color="#596D8F"/>
<stop offset="1" stop-color="#30455E"/>
</radialGradient>
<radialGradient id="paint40_radial_4471_26223" cx="0" cy="0" r="1" gradientUnits="userSpaceOnUse" gradientTransform="translate(50.5045 63.7177) scale(41.9764)">
<stop stop-color="#596D8F"/>
<stop offset="1" stop-color="#273647"/>
</radialGradient>
<radialGradient id="paint41_radial_4471_26223" cx="0" cy="0" r="1" gradientUnits="userSpaceOnUse" gradientTransform="translate(36.7971 55.3399) scale(20.6776 20.6776)">
<stop stop-color="#CEDBF0"/>
<stop offset="1" stop-color="#6D87AB"/>
</radialGradient>
</defs>
</svg>
