<svg width="55" height="25" viewBox="0 0 55 25" fill="none" xmlns="http://www.w3.org/2000/svg">
<path d="M2.14461 20.3436L52.4648 21.5231V12.9165H1.6605L2.14461 20.3436Z" fill="#021C2F"/>
<path opacity="0.5" d="M2.14461 20.3436L52.4648 21.5231V12.9165H1.6605L2.14461 20.3436Z" fill="#041401"/>
<path d="M54.4004 15.1248V19.4897C54.4007 20.4248 53.7914 21.2508 52.8978 21.5265L52.5421 21.6347C52.3231 21.7026 52.0945 21.7343 51.8653 21.7286L49.5152 21.6738C49.7943 20.6971 49.8189 19.6651 49.5866 18.6761C48.8345 15.4752 45.63 13.49 42.429 14.2421C39.2281 14.9941 37.2429 18.1986 37.9949 21.3996L14.0817 20.8309C14.1204 20.5516 14.1392 20.2698 14.138 19.9878C14.1236 16.6997 11.4465 14.0458 8.15846 14.0601C4.87038 14.0745 2.21655 16.7516 2.23081 20.0397C2.23081 20.1556 2.24018 20.27 2.24018 20.3843C2.20879 20.3718 2.17598 20.3593 2.14459 20.3436L1.3268 19.9785C0.52021 19.6141 0.00165176 18.8112 0.00136566 17.9261V9.03639C0.00127029 8.20023 0.464615 7.43278 1.20461 7.04351L7.35091 3.81131C7.42125 3.7738 7.47531 3.71169 7.50287 3.63686C7.56459 3.46873 7.47837 3.28232 7.31024 3.2206L6.5582 2.95113C6.49514 2.92941 6.44978 2.87391 6.44116 2.80769C6.42872 2.71162 6.49657 2.62358 6.59264 2.61114C9.51308 2.20378 20.8719 0.718538 26.8428 1.44857C33.7303 2.29153 40.331 8.26866 40.331 8.26866C45.3994 8.07909 50.131 9.84327 52.1677 10.7284C52.8253 11.0155 53.3311 11.5668 53.5605 12.2466L54.2577 14.3115C54.349 14.5732 54.3972 14.8478 54.4004 15.1248Z" fill="#55B648"/>
<path d="M14.0756 20.8309C14.1103 20.5686 14.1276 20.3043 14.1273 20.0397C14.1273 19.905 14.1226 19.7718 14.1148 19.6387L18.439 17.8698C18.6921 17.7668 18.9653 17.7224 19.238 17.7398L34.2788 18.7267C34.5246 18.7422 34.7647 18.8084 34.9838 18.921L37.8416 20.3906C37.8619 20.7304 37.9107 21.0679 37.9873 21.3996L14.0756 20.8309Z" fill="#021C2F"/>
<path d="M-0.000387907 17.9259V17.6987L2.44531 18.4476C2.30273 18.9662 2.23049 19.5016 2.23068 20.0395C2.23068 20.1554 2.24006 20.2698 2.24006 20.3841C2.20867 20.3716 2.17584 20.3591 2.14446 20.3434L1.32505 19.9783C0.518457 19.614 -0.000100851 18.8111 -0.000387907 17.9259Z" fill="#021C2F"/>
<path d="M53.7065 21.0562C53.4731 21.2721 53.1941 21.4328 52.8903 21.5263L52.5346 21.6344C52.3156 21.7023 52.087 21.734 51.8578 21.7284L49.5077 21.6735C49.5927 21.3765 49.6541 21.0731 49.691 20.7664L53.7065 21.0562Z" fill="#021C2F"/>
<path d="M8.16888 13.5267C8.43921 13.5266 8.70916 13.5434 8.97739 13.5769C12.5458 14.0226 15.0774 17.2766 14.6317 20.8451L14.0677 20.831C14.1065 20.5517 14.1252 20.2699 14.124 19.9878C14.1096 16.6998 11.4326 14.0458 8.14448 14.0602C4.8564 14.0745 2.20256 16.7516 2.21682 20.0397C2.21682 20.1557 2.2262 20.27 2.2262 20.3844C2.19491 20.3719 2.16199 20.3593 2.1306 20.3436L1.66056 20.1305C1.66056 20.0992 1.66056 20.0694 1.66056 20.0396C1.66487 16.4438 4.57927 13.5301 8.1751 13.5266L8.16888 13.5267Z" fill="#021C2F"/>
<path d="M43.7826 13.5266C44.3389 13.5265 44.8927 13.5976 45.4309 13.7382C48.911 14.6476 50.995 18.2061 50.0857 21.6862L49.5075 21.6737C49.7866 20.6969 49.8112 19.665 49.5788 18.676C48.8267 15.4751 45.6222 13.4899 42.4212 14.2419C39.2203 14.994 37.2351 18.1985 37.9871 21.3995L37.4106 21.3854C37.3168 20.9419 37.2695 20.4898 37.2696 20.0366C37.2705 16.4403 40.1864 13.5258 43.7826 13.5266Z" fill="#021C2F"/>
<path d="M38.1147 8.51892C38.1844 8.57787 38.2339 8.66256 38.2547 8.75844C38.3039 8.98561 38.1826 9.21451 37.9836 9.26972L35.4978 9.96646C35.2776 10.0289 35.0492 10.0461 34.8233 10.0174L16.3923 7.73386C15.9438 7.67693 15.5256 7.44487 15.2089 7.07713L12.791 4.26033C12.7105 4.16722 12.6595 4.04627 12.6462 3.91661C12.6132 3.59604 12.8142 3.30686 13.0952 3.27068C17.5088 2.68543 23.089 2.15338 26.6127 2.5839C31.2309 3.14762 35.8804 6.61905 38.1147 8.51892Z" fill="#55B648"/>
<path opacity="0.8" d="M38.0317 8.51892C38.1013 8.57787 38.1509 8.66256 38.1716 8.75844C38.2209 8.98561 38.0996 9.21451 37.9005 9.26972L35.4148 9.96646C35.1946 10.0289 34.9661 10.0461 34.7402 10.0174L30.0434 9.69536L16.7218 8.78217C16.2733 8.72524 15.58 7.90094 15.0898 7.23177L12.708 4.26033C12.6275 4.16722 12.5765 4.04627 12.5632 3.91661C12.5301 3.59604 12.7312 3.30686 13.0122 3.27068C17.4258 2.68543 23.006 2.15338 26.5297 2.5839C31.1478 3.14762 35.7974 6.61905 38.0317 8.51892Z" fill="white"/>
<g opacity="0.3">
<path d="M25.9918 10.275C26.1099 10.2325 26.1711 10.1023 26.1286 9.98432C26.0763 9.8382 25.9406 9.73839 25.7854 9.73207L23.592 9.63964C23.5623 9.6383 23.5328 9.64279 23.5048 9.65274C23.3859 9.69523 23.3239 9.82614 23.3664 9.94518C23.4196 10.0913 23.5557 10.1909 23.7111 10.1974L25.9046 10.2883C25.9342 10.2896 25.9639 10.2851 25.9918 10.275Z" fill="#041401"/>
<path d="M13.6886 9.85218C13.8067 9.80969 13.8679 9.67945 13.8254 9.56147C13.7731 9.41534 13.6373 9.31554 13.4822 9.30922L11.2888 9.21678C11.2591 9.21544 11.2295 9.21994 11.2016 9.22989C11.0826 9.27238 11.0206 9.40329 11.0632 9.52233C11.1164 9.66845 11.2525 9.76806 11.4079 9.77457L13.6014 9.86548C13.631 9.86672 13.6607 9.86223 13.6886 9.85218Z" fill="#041401"/>
</g>
<path d="M9.67973 3.99032C9.8737 4.16285 9.89111 4.45998 9.71858 4.65385L9.1984 5.21949C9.13869 5.28293 9.0629 5.32896 8.97907 5.35269L2.60712 7.11994C2.49621 7.14989 2.38196 7.1651 2.26713 7.16539H1.00121C1.06705 7.12147 1.13441 7.0808 1.20494 7.04319L7.35125 3.80784L7.35163 3.80765C7.50675 3.731 7.57049 3.54315 7.49384 3.38794L9.48988 3.88774C9.56021 3.90678 9.62518 3.9419 9.67973 3.99032Z" fill="#55B648"/>
<path d="M49.3579 11.56L51.532 11.3232L52.7811 11.8341C53.0436 11.9415 53.2398 12.1671 53.3098 12.4421C53.3507 12.6011 53.3277 12.7699 53.2455 12.9121L53.2236 12.9497C53.0839 13.1902 52.8129 13.3226 52.5374 13.285L51.284 13.1127C51.1618 13.0952 51.046 13.0472 50.9472 12.9733L49.5011 11.8765L49.3579 11.56Z" fill="#DDF0DA"/>
<path d="M40.3262 8.26554L39.98 8.3643C39.7109 8.44104 39.4213 8.37874 39.2075 8.19817C37.1927 6.49351 33.6894 3.87862 29.9089 2.6597C29.8922 2.65424 29.878 2.64257 29.8694 2.62726C29.8504 2.59329 29.8624 2.55032 29.8964 2.53128L30.3664 2.29004C35.8202 4.18101 40.3262 8.26554 40.3262 8.26554Z" fill="#55B648"/>
<path opacity="0.8" d="M40.3262 8.26554L39.98 8.3643C39.7109 8.44104 39.4213 8.37874 39.2075 8.19817C37.1927 6.49351 33.6894 3.87862 29.9089 2.6597C29.8922 2.65424 29.878 2.64257 29.8694 2.62726C29.8504 2.59329 29.8624 2.55032 29.8964 2.53128L30.3664 2.29004C35.8202 4.18101 40.3262 8.26554 40.3262 8.26554Z" fill="white"/>
<path opacity="0.2" d="M19.6643 10.5671L37.9873 11.8775L37.6424 14.1372C37.5368 14.8296 37.2801 15.4901 36.8907 16.0721L35.3592 18.361L19.7205 16.2466L12.3271 10.5671H19.6643Z" fill="white"/>
<path d="M8.17446 24.9992C5.43496 24.9992 3.21416 22.7784 3.21416 20.0389C3.21416 17.2994 5.43496 15.0786 8.17446 15.0786C10.914 15.0786 13.1348 17.2994 13.1348 20.0389C13.1348 22.7784 10.914 24.9992 8.17446 24.9992Z" fill="#021C2F"/>
<path opacity="0.4" d="M8.17482 23.0798C6.49532 23.0798 5.13381 21.7183 5.13381 20.0388C5.13381 18.3593 6.49532 16.9978 8.17482 16.9978C9.85432 16.9978 11.2158 18.3593 11.2158 20.0388C11.2158 21.7183 9.85432 23.0798 8.17482 23.0798Z" fill="white"/>
<g opacity="0.3">
<path d="M7.93071 17.5466V19.1055C7.93071 19.2396 8.03941 19.3484 8.17357 19.3484H8.1751C8.30926 19.3484 8.41797 19.2397 8.41797 19.1055V17.5466C8.41797 17.4124 8.30926 17.3037 8.1751 17.3037H8.17357C8.03941 17.3037 7.93071 17.4125 7.93071 17.5466Z" fill="white"/>
</g>
<g opacity="0.3">
<path d="M7.93071 20.9733V22.5323C7.93071 22.6664 8.03941 22.7751 8.17357 22.7751H8.1751C8.30926 22.7751 8.41797 22.6664 8.41797 22.5323V20.9733C8.41797 20.8392 8.30926 20.7305 8.1751 20.7305H8.17357C8.03941 20.7306 7.93071 20.8393 7.93071 20.9733Z" fill="white"/>
</g>
<g opacity="0.3">
<path d="M7.24503 19.7844C7.36158 19.8509 7.50981 19.8103 7.57622 19.6937C7.57632 19.6935 7.57651 19.6933 7.5766 19.6931C7.64339 19.5768 7.6032 19.4283 7.48694 19.3615L6.13796 18.5782C6.02112 18.5108 5.87175 18.5507 5.80429 18.6674C5.73797 18.7839 5.77778 18.9321 5.89356 18.9996L7.24254 19.7829C7.2434 19.7835 7.24417 19.784 7.24503 19.7844Z" fill="white"/>
</g>
<g opacity="0.3">
<path d="M10.2125 21.4899C10.3288 21.5567 10.4773 21.5165 10.544 21.4003C10.5441 21.4001 10.5443 21.3999 10.5444 21.3996C10.6112 21.2833 10.571 21.1348 10.4547 21.0681L9.10574 20.2848L9.10564 20.2847C8.98967 20.2172 8.84105 20.2566 8.77359 20.3725C8.70593 20.489 8.74517 20.6382 8.86134 20.7062L10.2118 21.4896C10.2121 21.4897 10.2123 21.4898 10.2125 21.4899Z" fill="white"/>
</g>
<g opacity="0.3">
<path d="M6.13833 21.4964L7.48731 20.7131C7.60405 20.6455 7.64405 20.4962 7.57659 20.3794C7.50855 20.2633 7.35927 20.224 7.24291 20.2917L5.89394 21.075C5.77815 21.1425 5.73825 21.2907 5.80466 21.4072C5.87221 21.5239 6.02149 21.5639 6.13833 21.4964Z" fill="white"/>
</g>
<g opacity="0.3">
<path d="M8.77393 19.6942C8.84111 19.8103 8.98962 19.85 9.1057 19.7829L10.4547 18.9995C10.4549 18.9995 10.4551 18.9993 10.4553 18.9992C10.5714 18.932 10.6111 18.7835 10.544 18.6674C10.544 18.6672 10.5438 18.667 10.5437 18.6667C10.4766 18.5507 10.328 18.5109 10.2119 18.578L8.8614 19.3614L8.8613 19.3615C8.74541 19.429 8.70618 19.5776 8.77374 19.6935C8.77364 19.6938 8.77384 19.694 8.77393 19.6942Z" fill="white"/>
</g>
<path d="M8.58252 20.038C8.58252 19.813 8.40013 19.6306 8.17516 19.6306C8.17468 19.6306 8.1741 19.6306 8.17363 19.6306C7.94779 19.6306 7.76474 19.8137 7.76474 20.0395C7.76474 20.2653 7.94779 20.4484 8.17363 20.4484C8.39946 20.4484 8.58252 20.2653 8.58252 20.0395C8.58252 20.039 8.58252 20.0385 8.58252 20.038Z" fill="#021C2F"/>
<path d="M43.7829 25C41.0434 25 38.8226 22.7791 38.8226 20.0396C38.8226 17.3001 41.0434 15.0793 43.7829 15.0793C46.5224 15.0793 48.7432 17.3001 48.7432 20.0396C48.7432 22.7791 46.5224 25 43.7829 25Z" fill="#021C2F"/>
<path opacity="0.4" d="M43.7826 23.0807C42.1031 23.0807 40.7415 21.7192 40.7415 20.0396C40.7415 18.3601 42.1031 16.9985 43.7826 16.9985C45.4622 16.9985 46.8237 18.3601 46.8237 20.0396C46.8237 21.7192 45.4622 23.0807 43.7826 23.0807Z" fill="white"/>
<g opacity="0.3">
<path d="M43.5401 17.5466V19.1055C43.5401 19.2396 43.6488 19.3484 43.7829 19.3484H43.7845C43.9185 19.3484 44.0273 19.2397 44.0273 19.1055V17.5466C44.0273 17.4124 43.9186 17.3037 43.7845 17.3037H43.7829C43.6488 17.3037 43.5401 17.4125 43.5401 17.5466Z" fill="white"/>
</g>
<g opacity="0.3">
<path d="M43.5396 20.9733V22.5323C43.5396 22.6664 43.6483 22.7751 43.7825 22.7751H43.784C43.9181 22.7751 44.0269 22.6664 44.0269 22.5323V20.9733C44.0269 20.8392 43.9181 20.7305 43.784 20.7305H43.7825C43.6483 20.7306 43.5396 20.8393 43.5396 20.9733Z" fill="white"/>
</g>
<g opacity="0.3">
<path d="M42.8549 19.7848C42.9709 19.8503 43.1181 19.8096 43.1837 19.6936L43.1838 19.6935C43.2513 19.5776 43.2119 19.4289 43.096 19.3614L41.7455 18.5781C41.7453 18.578 41.7451 18.5778 41.7448 18.5777C41.6285 18.5109 41.48 18.551 41.4132 18.6674C41.4131 18.6676 41.4129 18.6678 41.4128 18.6681C41.346 18.7844 41.3861 18.9328 41.5025 18.9996L42.8515 19.783C42.8527 19.7835 42.8538 19.7842 42.8549 19.7848Z" fill="white"/>
</g>
<g opacity="0.3">
<path d="M46.1534 21.4003C46.1535 21.4001 46.1537 21.3999 46.1537 21.3997C46.2205 21.2834 46.1804 21.1349 46.0641 21.0682L44.7151 20.2848C44.5987 20.2172 44.4495 20.2564 44.3814 20.3726C44.3141 20.4894 44.354 20.6388 44.4707 20.7063L45.8197 21.4896C45.9364 21.5571 46.0858 21.5171 46.1534 21.4003Z" fill="white"/>
</g>
<g opacity="0.3">
<path d="M41.4141 21.4076C41.4812 21.5237 41.6298 21.5634 41.7459 21.4963L43.0964 20.713C43.2126 20.6449 43.2518 20.4957 43.1842 20.3793L43.1841 20.3792C43.1165 20.2633 42.9679 20.2241 42.852 20.2916L41.503 21.0749C41.5028 21.075 41.5026 21.0752 41.5024 21.0753C41.3863 21.1425 41.3466 21.291 41.4137 21.407C41.4138 21.4072 41.4139 21.4074 41.4141 21.4076Z" fill="white"/>
</g>
<g opacity="0.3">
<path d="M44.3828 19.6962C44.4506 19.8119 44.5994 19.8508 44.7151 19.783L46.064 18.9996C46.0642 18.9995 46.0644 18.9993 46.0647 18.9992C46.1808 18.9321 46.2205 18.7836 46.1534 18.6675C46.0859 18.5507 45.9365 18.5107 45.8197 18.5782L44.4708 19.3615C44.4706 19.3616 44.4704 19.3618 44.4701 19.3619C44.354 19.4291 44.3143 19.5776 44.3814 19.6937C44.3819 19.6945 44.3823 19.6953 44.3828 19.6962Z" fill="white"/>
</g>
<path d="M43.7825 19.6306C43.5567 19.6306 43.3736 19.8137 43.3736 20.0395C43.3736 20.2653 43.5567 20.4484 43.7825 20.4484C44.0083 20.4484 44.1914 20.2653 44.1914 20.0395C44.1914 19.8137 44.0083 19.6306 43.7825 19.6306Z" fill="#021C2F"/>
<path opacity="0.3" d="M0.520265 10.6814C0.355004 10.6299 0.262756 10.4543 0.314238 10.2891C0.371749 9.24486 0.593757 8.31502 1.23394 7.6757C1.27681 7.53513 1.41173 7.44326 1.55824 7.45484L5.33875 7.81206C5.40459 7.81914 5.4664 7.84679 5.51549 7.8912C5.64382 8.00727 5.65377 8.20545 5.53779 8.33377L4.45513 9.50103C4.41752 9.54141 4.36996 9.57107 4.31724 9.58715L0.698058 10.6839C0.639782 10.7002 0.578063 10.6994 0.520265 10.6814Z" fill="#041401"/>
<path d="M38.2547 8.75642C38.3039 8.98359 38.1826 9.21249 37.9836 9.2677L35.4978 9.96444C35.2776 10.0268 35.1304 10.0538 34.8382 10.0306L34.0356 9.96884L34.7623 6.04297C36.4671 7.16266 36.5839 7.21367 38.1147 8.5169C38.1843 8.57585 38.2338 8.66053 38.2547 8.75642Z" fill="#021C2F"/>
<path d="M22.0614 2.45508L23.623 9.26444L21.5804 9.11755L20.6476 2.51871C21.1256 2.49144 21.5969 2.4702 22.0614 2.45508Z" fill="#021C2F"/>
<path d="M15.5801 7.84422L12.711 4.26036C12.6285 4.16648 12.5763 4.04361 12.563 3.91175C12.5308 3.59109 12.7325 3.30257 13.0135 3.26717C13.6014 3.18736 14.2268 3.11052 14.8522 3.0354" fill="#021C2F"/>
<path d="M35.9939 9.44909C36.4906 9.45493 36.8979 9.05714 36.9038 8.56049C36.9085 8.13811 36.6192 7.76912 36.2079 7.67304L35.0095 7.39209L34.7046 9.40019L35.9701 9.44852C35.978 9.4488 35.986 9.44899 35.9939 9.44909Z" fill="#55B648"/>
<path opacity="0.3" d="M35.0553 9.41388L34.7045 9.40019L35.0094 7.39209L35.3516 7.47304L35.0553 9.41388Z" fill="#041401"/>
<path opacity="0.6" d="M21.6232 9.11792C21.6085 9.82365 21.6161 10.5702 21.6924 10.9516C21.8619 11.7991 23.1831 17.9983 23.1831 17.9983" stroke="#041401" stroke-width="0.0478461" stroke-miterlimit="10" stroke-linecap="round" stroke-linejoin="round"/>
<path opacity="0.6" d="M38.2656 8.90601C38.2656 8.90601 37.8707 14.2661 37.2695 15.3504C36.6831 16.4079 34.9835 18.9208 34.9835 18.9208" stroke="#041401" stroke-width="0.0478461" stroke-miterlimit="10" stroke-linecap="round" stroke-linejoin="round"/>
<path opacity="0.6" d="M39.6447 8.39648C39.6447 8.39648 43.8691 9.4402 45.1122 9.63934C46.1329 9.80287 50.2827 10.8125 51.5317 11.3235" stroke="#041401" stroke-width="0.0478461" stroke-miterlimit="10" stroke-linecap="round" stroke-linejoin="round"/>
<path opacity="0.8" d="M9.67973 3.99032C9.8737 4.16285 9.89111 4.45998 9.71858 4.65385L9.1984 5.21949C9.13869 5.28293 9.0629 5.32896 8.97907 5.35269L2.60712 7.11994C2.49621 7.14989 2.38196 7.1651 2.26713 7.16539H1.00121C1.06705 7.12147 1.13441 7.0808 1.20494 7.04319L7.35125 3.80784L7.35163 3.80765C7.50675 3.731 7.57049 3.54315 7.49384 3.38794L9.48988 3.88774C9.56021 3.90678 9.62518 3.9419 9.67973 3.99032Z" fill="#DDF0DA"/>
<path d="M25.5499 7.86075C25.5499 7.86075 25.6312 7.33855 25.3394 6.42651C25.3394 6.42556 25.3872 6.40268 25.3872 6.40173C25.3469 6.27417 25.3045 6.15637 25.2648 6.05446C25.2639 6.05149 25.264 6.05054 25.264 6.05054L26.543 6.7932C26.5216 7.08803 26.6427 7.65329 26.7123 7.89146C26.7123 7.89146 26.883 8.3216 26.3056 8.35653C25.8836 8.38189 25.5499 7.86075 25.5499 7.86075Z" fill="#B97964"/>
<path opacity="0.2" d="M26.5759 7.20599L25.8476 7.06274C25.9195 7.28599 26.1261 7.54733 26.6304 7.55527C26.6304 7.55527 26.5731 7.30475 26.5759 7.20599Z" fill="#041401"/>
<path d="M25.2371 5.44003C25.3439 6.23504 25.388 6.68556 25.8215 7.06249C26.4734 7.62947 27.4119 7.20316 27.5452 6.38987C27.6651 5.65783 27.4704 4.48072 26.6648 4.22704C25.871 3.97718 25.1304 4.64511 25.2371 5.44003Z" fill="#B97964"/>
<path d="M25.0664 4.48715C25.1442 4.03922 26.2468 3.95472 26.5711 4.1573C26.6196 4.18754 25.99 4.56294 26.0286 4.54562L25.7287 4.67423C25.6805 4.66715 25.5915 4.72925 25.5539 4.87987C25.5539 4.87987 25.6774 6.10167 25.3561 6.48109C25.0674 6.3653 25.0161 5.8812 24.9073 5.59862C24.7453 5.17757 24.5419 4.55844 25.0664 4.48715Z" fill="#021C2F"/>
<path d="M24.9699 6.12832C25.0485 6.32928 25.2131 6.47425 25.3771 6.54152C25.624 6.64267 25.694 6.37569 25.6532 6.12574C25.6165 5.90077 25.5305 5.62967 25.2694 5.63484C25.0121 5.64001 24.8799 5.89847 24.9699 6.12832Z" fill="#B97964"/>
<path d="M26.3966 5.58799C26.4026 5.66971 26.4506 5.73239 26.5041 5.72798C26.5576 5.72358 26.5962 5.65382 26.5902 5.5721C26.5843 5.49038 26.5362 5.4277 26.4828 5.4321C26.4293 5.43641 26.3907 5.50627 26.3966 5.58799Z" fill="#021C2F"/>
<path d="M27.1994 5.54599C27.2052 5.62771 27.2534 5.69039 27.3068 5.68599C27.3603 5.68159 27.3988 5.61183 27.393 5.53011C27.387 5.44839 27.3389 5.38571 27.2855 5.39011C27.232 5.39451 27.1935 5.46427 27.1994 5.54599Z" fill="#021C2F"/>
<path d="M26.9355 5.51953C26.9355 5.51953 27.2235 5.90689 27.3184 6.06622C27.212 6.17713 27.0127 6.14392 27.0127 6.14392L26.9355 5.51953Z" fill="#A24E3F"/>
<path d="M26.1691 5.21729C26.1818 5.2214 26.1964 5.21882 26.2071 5.20915C26.3345 5.09403 26.4718 5.12762 26.4731 5.12791C26.4936 5.13317 26.5147 5.12083 26.5202 5.10044C26.5256 5.07997 26.5134 5.0592 26.4929 5.05384C26.4856 5.05193 26.3138 5.00992 26.1556 5.15269C26.1398 5.16695 26.1386 5.19116 26.1527 5.20666C26.1573 5.21183 26.163 5.21537 26.1691 5.21729Z" fill="#021C2F"/>
<path d="M26.7637 6.4236C26.6312 6.43422 26.5236 6.37547 26.4138 6.28418" stroke="#021C2F" stroke-width="0.0717692" stroke-miterlimit="10" stroke-linecap="round" stroke-linejoin="round"/>
<path opacity="0.2" d="M25.1362 5.89413C25.1649 5.84418 25.2293 5.82189 25.2861 5.83155C25.343 5.84122 25.3922 5.87787 25.4296 5.9217C25.4745 5.97433 25.5054 6.03892 25.5181 6.10695" stroke="#041401" stroke-width="0.0478461" stroke-miterlimit="10" stroke-linecap="round" stroke-linejoin="round"/>
<path d="M27.5284 5.17473C27.5354 5.17272 27.5419 5.1686 27.547 5.16257C27.5607 5.14631 27.5588 5.122 27.5428 5.10841C27.3818 4.97119 27.2129 5.02181 27.2051 5.02315C27.1849 5.02937 27.1732 5.05081 27.1791 5.07109C27.1851 5.09138 27.2061 5.10277 27.2263 5.09683C27.2333 5.09444 27.3639 5.05712 27.4931 5.16726C27.5032 5.17588 27.5166 5.17817 27.5284 5.17473Z" fill="#021C2F"/>
<path d="M24.878 4.15078C24.9276 3.96839 25.1575 3.91585 25.3356 3.94265C25.3151 3.72437 25.593 3.58218 25.7727 3.57816C25.9599 3.57385 26.0311 3.64495 26.0311 3.64495C26.0169 3.64878 26.0817 3.53347 26.1233 3.48677C26.2767 3.31462 26.5303 3.25118 26.7404 3.33242C26.9504 3.41366 27.1046 3.6349 27.1153 3.8705C27.2248 3.7459 27.4327 3.73911 27.5489 3.85633C27.6651 3.97356 27.6676 4.19279 27.5542 4.31336C27.6919 4.31432 27.8143 4.4525 27.8057 4.59728C27.7971 4.74206 27.6593 4.86359 27.5227 4.84694C27.5232 5.00923 27.5168 5.21229 27.5174 5.37468L27.2692 4.79134C27.1557 4.75775 27.1318 4.70819 27.1027 4.5878C27.0292 4.74503 26.9002 4.73967 26.7339 4.74225C26.5677 4.74484 26.4039 4.64254 26.3264 4.48771C26.2491 4.65202 26.0927 4.78196 25.9189 4.78732C25.745 4.79259 25.5692 4.64905 25.5601 4.46608C25.466 4.6279 25.2526 4.69852 25.0879 4.62235C24.9233 4.54628 24.8285 4.33317 24.878 4.15078Z" fill="#021C2F"/>
<path d="M26.7867 7.73706L29.8393 8.75676L32.6468 8.61331L32.7549 9.49139C32.7549 9.49139 31.917 9.66784 31.0998 9.77846L28.4744 9.59847C27.5984 9.3912 26.7342 9.13857 26.7342 9.13857L26.7867 7.73706Z" fill="#B97964"/>
<path d="M27.4307 9.56996L27.116 7.74118L25.9278 7.53401C25.8758 7.52635 24.9106 7.44702 24.6211 8.50595L24.5565 9.34757L27.4307 9.56996Z" fill="#021C2F"/>
<path d="M26.4651 9.48251C26.5309 9.48155 28.4223 9.66518 28.4223 9.66518L28.7642 8.31401C28.7642 8.31401 27.9032 7.95382 27.1162 7.7411C26.2367 7.50331 25.4119 7.42953 25.2218 7.84005C24.8618 8.61793 26.4651 9.48251 26.4651 9.48251Z" fill="#021C2F"/>
<path d="M33.5686 8.21313C33.6224 8.24567 34.2588 8.90336 34.2588 8.90336L34.1347 9.71856L33.3346 8.89264L33.5686 8.21313Z" fill="#021C2F"/>
<path d="M32.6103 9.91383C32.751 9.98321 32.9213 9.92551 32.9907 9.78484L34.2602 7.21273C34.3296 7.07206 34.2719 6.90173 34.1312 6.83235C33.9905 6.76298 33.8202 6.82068 33.7508 6.96135L32.4814 9.53346C32.4119 9.67412 32.4697 9.84446 32.6103 9.91383Z" fill="#021C2F"/>
<path d="M31.6959 8.68311L32.7408 8.54273L33.043 8.17728C33.043 8.17728 33.5738 8.12963 33.6877 8.22427C33.8017 8.31891 33.9164 8.62043 33.9164 8.62043C33.9164 8.62043 34.0547 8.8676 33.8177 8.99736C33.8177 8.99736 33.9677 9.21736 33.7003 9.37267C33.7003 9.37267 33.8974 9.48396 33.6145 9.60032C33.3317 9.71668 33.1078 9.64903 32.9346 9.58683C32.7614 9.52463 32.4549 9.55104 32.4549 9.55104L31.5048 9.7186L31.6959 8.68311Z" fill="#B97964"/>
<path d="M18.7925 1C17.745 1.05187 16.5854 1.14584 15.5804 1.28526" stroke="#55B648" stroke-width="0.0717692" stroke-miterlimit="10" stroke-linecap="round" stroke-linejoin="round"/>
<path d="M15.2212 1.32446C15.0354 1.34255 14.8467 1.3614 14.6563 1.38111" stroke="#55B648" stroke-width="0.0717692" stroke-miterlimit="10" stroke-linecap="round" stroke-linejoin="round"/>
</svg>
