<svg width="163" height="87" viewBox="0 0 163 87" fill="none" xmlns="http://www.w3.org/2000/svg">
<path d="M156.524 45.3481C156.879 47.3277 156.176 49.3906 154.537 50.661C152.269 52.5882 149.491 53.8062 146.737 54.944C144.23 55.977 141.711 57.0285 139.172 57.972C130.82 61.1203 122.351 63.968 113.906 66.8633C102.857 70.5759 91.863 74.4226 80.8209 78.1521C75.7346 79.7448 70.7794 81.7121 65.6546 83.1906C62.0099 84.2776 58.1647 84.6075 54.3643 84.4302C47.2459 84.2067 40.1847 83.1829 33.1404 82.227C26.389 81.1601 9.95232 79.1389 5.8697 74.105C2.20183 70.3 4.85216 65.9954 9.26771 64.3488C16.5448 61.8326 24.3214 61.0433 31.9008 59.7605C50.4235 56.7633 69.1081 54.85 87.7171 52.4787C96.3463 51.327 104.919 49.8223 113.523 48.501C117.567 47.8149 121.608 47.1134 125.634 46.3287C126.579 46.1421 127.524 45.9571 128.469 45.7767C128.588 45.7535 128.705 45.806 128.773 45.897C135.111 44.0962 149.892 39.7284 155.511 43.5766C156.028 44.0376 156.455 44.6588 156.524 45.3481Z" fill="#808D97"/>
<path d="M103.385 47.9705C105.862 51.6727 105.52 55.9265 104.309 60.0136C103.355 62.9001 102.218 66.1576 99.4399 67.7546C98.2609 68.3488 96.9687 68.6708 95.7428 69.1285C93.3472 69.9993 90.9986 71.041 88.8675 72.4431C88.352 72.8424 87.7599 73.1413 87.2568 73.565C87.1578 73.6459 87.0712 73.7672 86.9311 73.7527C86.8798 73.7513 86.8589 73.695 86.8611 73.651C85.942 74.1108 84.8598 74.3953 83.8382 74.1679C82.4968 73.8538 82.0116 72.3189 81.4189 71.2454C80.5041 69.4058 79.7692 67.486 79.1678 65.5237C78.5259 63.4899 77.8798 61.4489 77.4877 59.3494C76.7722 54.557 75.9897 48.8794 79.3382 44.8739C81.1547 42.8105 83.6079 41.272 86.2669 40.5667C92.3386 39.1235 100.063 42.8149 103.385 47.9705Z" fill="#3B3B3B"/>
<path d="M97.3173 59.2528C97.6111 61.7789 97.6458 64.3643 97.0083 66.8421C96.8459 67.5981 96.5975 68.3323 96.2322 69.0145C96.1651 69.1575 96.0813 69.3163 95.9492 69.4058C95.9066 69.5798 95.8062 69.7473 95.7507 69.9039C95.4828 70.6014 95.2164 71.2808 94.9131 71.9587C93.8165 74.3989 92.5032 76.7403 91.0607 78.9928C89.4471 81.467 87.2227 83.6178 84.5738 84.9535C82.6122 85.827 80.5149 86.5086 78.3425 86.4047C76.5268 86.3996 74.7016 86.2169 73.0129 85.5151C71.3141 84.8438 69.5879 83.9788 68.3851 82.5681C66.8458 80.6578 66.7043 78.0572 66.6624 75.7014C66.6422 73.8488 67.0725 72.0454 67.4436 70.2412C67.5728 69.1712 67.7454 68.1071 67.9446 67.0465C68.5201 63.7803 69.442 60.587 70.8556 57.5851C71.8967 55.4148 72.9905 53.2388 74.5261 51.3689C76.2589 49.1827 78.6551 47.6247 81.3495 46.918C84.0489 46.1281 86.8761 45.7873 89.5821 46.7468C92.4549 47.6912 94.5334 50.1776 95.7549 52.859C96.6733 54.8726 97.0588 57.0702 97.3173 59.2528Z" fill="#232323"/>
<path d="M85.0662 84.4315C85.0099 84.4584 84.9536 84.485 84.8973 84.5103C84.9536 84.485 85.01 84.459 85.0662 84.4315ZM96.1153 54.9152C98.7989 59.9574 97.7737 66.2993 95.885 71.4527C94.0901 76.1896 91.45 80.8924 87.043 83.6309C85.3219 84.7521 83.3553 85.6676 81.2564 85.5686C79.2277 85.5246 77.2639 84.6965 75.6488 83.4966C73.9392 82.1263 72.7068 80.2066 72.0008 78.1446C70.9431 74.9311 71.1113 71.4563 71.4859 68.1388C72.0116 63.7832 73.2974 59.4658 75.8091 55.8321C77.1772 53.7846 78.7331 51.8497 80.7611 50.4259C82.5581 49.0946 84.6908 48.0225 86.9614 47.9626C89.437 47.8752 91.8694 48.9358 93.4606 50.8411C94.4823 52.1053 95.615 53.3399 96.1153 54.9152Z" fill="#414141"/>
<path d="M95.9443 60.2368C96.0995 62.1955 95.8569 64.1564 95.5328 66.0862C95.2281 67.9575 94.7567 69.7985 94.1401 71.5912C93.1539 74.5326 91.6067 77.2898 89.36 79.4492C87.532 81.226 85.117 82.7241 82.4933 82.6837C79.8033 82.5703 77.381 81.0866 76.1905 78.655C75.4339 77.0963 74.8982 75.4351 74.7805 73.7009C74.6845 72.5984 74.7062 71.4851 74.8903 70.3927C75.0642 69.6665 75.0526 68.9141 75.156 68.1749C75.5603 64.2467 76.3429 60.8923 78.6698 57.6211C80.6956 54.5925 84.0384 51.2808 87.8735 51.1097C93.1488 51.2512 95.6339 55.3809 95.9443 60.2368Z" fill="#353535"/>
<path d="M95.2502 62.3883C95.2408 63.0727 95.3058 63.8055 95.0149 64.4423C94.9 64.6553 94.6748 64.7824 94.4705 64.8965C94.0893 65.1087 93.6864 65.3073 93.2901 65.4848C91.9768 66.0834 90.5264 66.4285 89.0831 66.2205C88.1482 66.0545 85.835 65.591 85.2589 64.8798C85.1167 64.669 85.1766 64.4112 85.3513 64.2401C85.6047 63.9405 85.8719 63.6524 86.1202 63.3484C86.7194 62.633 87.2327 61.8576 87.676 61.041C88.7337 59.1841 89.5228 57.1748 90.6938 55.3837C90.9227 55.035 91.2887 54.6675 91.7155 54.9563C92.2345 55.2689 92.9334 55.3071 93.3348 55.7836C93.5896 56.2659 92.6626 57.7488 92.4244 58.2585C91.2108 60.3833 89.681 62.3297 87.8515 63.9563C90.0138 63.4257 92.0332 62.4358 93.7831 61.0634C94.1333 60.8431 94.6083 60.2526 95.0408 60.5688C95.1116 60.6475 95.1333 60.7508 95.1441 60.8525C95.2076 61.3602 95.235 61.8793 95.2502 62.3883Z" fill="#252525"/>
<path d="M92.958 73.0619C93.0713 73.2698 93.1948 73.5001 93.1781 73.7442C93.0828 74.4459 92.6316 75.0372 92.2699 75.6271C91.9818 76.0538 91.6786 76.4819 91.3501 76.8818C91.2858 76.9627 91.2115 77.0393 91.109 77.0682C90.5682 77.105 90.4815 76.344 90.3011 75.9664C89.5466 73.8489 88.3547 71.9126 86.7937 70.2917C87.4789 72.6699 87.7352 75.1592 87.6255 77.6298C87.5532 78.1943 87.5453 79.9625 87.0673 80.2368C86.4667 80.4274 85.8487 80.0823 85.2365 80.0694C84.7159 80.0853 84.6012 79.5741 84.5939 79.1525C84.5607 76.9895 84.9708 74.8466 85.0698 72.6879C85.1319 71.7516 85.1123 70.8108 84.986 69.8759C84.9383 69.4824 84.8654 69.0918 84.8106 68.699C84.7528 68.4586 84.8416 68.2059 85.077 68.102C85.9534 67.8053 88.1801 68.6586 89.0694 69.0211C90.4145 69.6232 91.4685 70.7011 92.267 71.9219C92.5096 72.2879 92.7471 72.6749 92.958 73.0619Z" fill="#252525"/>
<path d="M83.9089 68.0918C84.0475 68.273 84.0093 68.5069 83.862 68.6701C83.6519 68.9531 83.4288 69.2261 83.2238 69.512C82.7278 70.187 82.3119 70.9104 81.9618 71.667C81.12 73.3904 80.5265 75.2344 79.58 76.9042C79.3944 77.2299 79.0876 77.5793 78.6891 77.3453C78.2068 77.0948 77.578 77.1006 77.1918 76.6963C76.9361 76.279 77.6827 74.8986 77.8668 74.4278C78.8335 72.4562 80.0934 70.6267 81.6398 69.0665C79.733 69.6636 77.9808 70.665 76.4906 71.9934C76.1903 72.2107 75.7983 72.7659 75.3925 72.5075C75.3253 72.4411 75.2993 72.35 75.2842 72.2591C75.199 71.8078 75.1449 71.3451 75.1023 70.8902C75.0713 70.2766 74.9715 69.6239 75.1961 69.0369C75.2871 68.8398 75.4814 68.7135 75.6582 68.5994C75.9874 68.3879 76.3368 68.1879 76.682 68.006C77.8234 67.3952 79.1035 67.0046 80.4081 67.1078C81.2549 67.2038 83.3522 67.4875 83.9089 68.0918Z" fill="#252525"/>
<path d="M84.3213 64.97C84.4282 65.1375 84.4268 65.3527 84.2752 65.4927C83.6875 65.9468 81.7742 65.8819 81.0046 65.8385C79.8264 65.7331 78.7448 65.1901 77.8192 64.4725C77.5398 64.2581 77.2583 64.0264 76.9969 63.7881C76.8569 63.6596 76.7023 63.5173 76.6518 63.3275C76.5406 62.7701 76.7284 62.2034 76.8489 61.6611C76.9558 61.2619 77.0742 60.8576 77.2193 60.4685C77.2468 60.3898 77.2836 60.3125 77.3536 60.2641C77.7543 60.0944 78.0192 60.6496 78.2547 60.8887C79.3809 62.2994 80.7916 63.4574 82.4002 64.2798C81.2588 62.6539 80.4127 60.8316 79.8509 58.9271C79.7578 58.4802 79.3022 57.1359 79.5932 56.803C79.999 56.5005 80.5585 56.6016 81.0263 56.4515C81.4176 56.3027 81.6378 56.6608 81.7533 56.9792C82.3446 58.6123 82.593 60.3457 83.0825 62.0098C83.2796 62.7376 83.541 63.4459 83.8803 64.1223C84.0195 64.409 84.177 64.6863 84.3213 64.97Z" fill="#252525"/>
<path d="M82.93 64.3463C82.382 64.5686 81.6919 64.373 81.2702 63.9903C79.7274 62.55 79.1866 60.4173 78.7686 58.4253C78.5131 57.7467 79.082 56.6522 79.7686 57.4637C80.1382 57.9994 80.0884 58.7279 80.2956 59.3314C80.5267 60.2151 80.8024 61.0988 81.2544 61.8966C81.71 62.7904 82.6838 63.3348 82.93 64.3463Z" fill="#414141"/>
<path d="M93.906 60.3559C94.4316 59.9892 95.2748 60.2021 94.9644 60.9682C94.067 62.4482 89.715 64.3326 87.9851 64.2618C87.7187 64.225 87.4371 64.1556 87.2134 64.0048C87.4429 63.5203 87.9158 63.1623 88.4126 62.9868C89.1309 62.7696 89.8651 62.589 90.5625 62.3053C91.779 61.8483 92.906 61.1826 93.906 60.3559Z" fill="#414141"/>
<path d="M93.3957 72.8432C93.3776 73.3103 92.9783 73.5976 92.5589 73.3203C91.9769 72.8966 91.7676 72.0923 91.3005 71.5631C90.3331 70.2101 88.9217 69.0976 87.2344 68.8766C86.6279 68.8211 86.0157 68.5958 85.5789 68.1604C85.7811 67.9013 86.0951 67.7265 86.4099 67.6334C88.2863 67.3315 90.2002 68.4412 91.468 69.7603C92.1012 70.4758 93.3617 71.8966 93.3957 72.8432Z" fill="#414141"/>
<path d="M80.4658 69.5885C80.9574 69.1012 81.6729 68.7734 82.3718 68.9265C82.3198 69.4463 82.0115 69.9452 81.631 70.2953C80.9473 70.8614 80.3265 71.4989 79.7849 72.2035C79.1843 73.0056 78.642 73.8597 78.2753 74.7954C77.9158 75.4062 78.0024 76.6776 77.1057 76.7303C75.9087 76.2841 77.2032 74.1232 77.5186 73.3413C78.2681 71.9306 79.2673 70.647 80.4658 69.5885Z" fill="#414141"/>
<path d="M162.682 33.3932C162.719 35.3022 162.649 37.263 161.991 39.0752C161.645 39.979 160.982 40.6938 160.459 41.493C160.148 41.9739 159.876 42.4497 159.621 42.9558C159.398 43.3694 159.312 43.8359 159.071 44.2445C158.85 44.6156 158.605 45.1931 158.108 45.191C157.863 45.1549 157.716 44.9274 157.579 44.7433C157.045 44.0062 156.609 43.1666 156.054 42.4496C155.389 41.5739 154.586 40.8187 153.884 39.9747C153.225 39.0925 152.731 38.0759 152.443 37.0132C151.992 35.0017 151.947 32.8265 152.926 30.9652C154.033 28.6867 156.65 26.4363 159.327 27.0117C160.369 27.2875 161.148 28.185 161.695 29.0658C162.525 30.3501 162.697 31.9024 162.682 33.3932Z" fill="#3B3B3B"/>
<path d="M159.976 32.6085C161.37 34.7434 161.346 39.1828 160.903 41.6642C160.742 42.4714 160.467 43.2525 160.143 44.0091C159.981 44.3802 159.795 44.716 159.598 45.0546C159.543 45.4019 159.52 45.7513 159.482 46.1006C159.141 48.6558 158.572 52.4945 156.535 54.2337C156 54.6518 155.341 54.8589 154.674 54.9448C153.781 55.0856 152.879 55.1795 151.973 55.165C151.021 55.1658 150.044 55.1051 149.106 54.9975C148.37 54.9094 147.618 54.7853 146.964 54.4207C145.254 53.4691 145.05 51.1797 145.472 49.4571C145.771 48.3713 146.328 47.3865 146.795 46.3707C147.437 45.0242 147.938 43.6214 148.401 42.2071C149.463 39.2015 150.374 36.0407 152.305 33.4589C153.234 32.184 154.474 31.0548 156.014 30.613C157.63 30.0101 159.2 31.2671 159.976 32.6085Z" fill="#232323"/>
<path d="M152.022 52.8858C152.004 52.8497 151.987 52.8129 151.97 52.776C151.987 52.8135 152.004 52.8497 152.022 52.8858ZM160.479 34.1925C160.884 35.1693 160.847 36.2523 160.843 37.2883C160.826 38.4413 160.77 39.5965 160.661 40.7444C160.592 41.8035 160.288 42.8382 159.763 43.7608C159.451 44.0597 159.223 44.4683 159.062 44.8639C157.955 47.4927 159.223 53.1421 156.071 54.2763C155.341 54.5304 154.557 54.7875 153.781 54.6012C151.172 54.0222 151.189 50.9155 151.008 48.7727C150.741 44.9095 151.47 41.0679 152.525 37.3692C152.975 36.1015 153.529 34.8279 154.397 33.7882C156.397 31.5147 158.911 31.4252 160.479 34.1925Z" fill="#414141"/>
<path d="M160.46 36.1974C161.143 38.2102 160.917 40.3877 160.752 42.4677C160.476 45.2278 159.961 48.0023 158.932 50.5842C158.289 52.3169 157.229 54.1954 155.076 53.789C152.204 53.1963 152.051 48.5475 152.262 46.2098C152.292 43.7818 152.449 41.3184 153.136 38.9778C153.643 37.4075 154.337 35.8495 155.549 34.7001C156.261 34.0085 157.303 33.4121 158.29 33.8851C159.338 34.264 160.093 35.1635 160.46 36.1974Z" fill="#353535"/>
<path d="M160.552 38.6961C160.582 38.9675 160.595 39.2599 160.441 39.4989C159.584 40.5334 158.385 41.2373 157.375 42.1001C157.449 42.2546 157.715 42.2445 157.852 42.2755C158.468 42.3412 159.05 42.3087 159.656 42.2691C159.779 42.2575 159.909 42.2611 160.023 42.3138C160.405 42.4697 160.32 42.9563 160.275 43.2848C160.252 44.0638 159.084 44.2198 158.319 44.2198C158.185 44.2198 158.064 44.2147 157.963 44.2075C157.408 44.1382 156.881 43.9137 156.388 43.6588C155.972 43.4769 155.837 43.0271 155.933 42.6069C155.954 42.4733 155.983 42.3412 156.016 42.2106C156.027 42.1875 156.038 42.1643 156.048 42.1398C156.078 42.0741 156.107 42.0077 156.136 41.9412C156.191 41.8135 156.245 41.6857 156.299 41.5586C156.302 41.5543 156.304 41.5492 156.306 41.5449C156.402 41.3276 156.502 41.1124 156.601 40.8965C156.601 40.8951 156.602 40.8936 156.603 40.8922C156.604 40.8886 156.606 40.885 156.608 40.8806C156.655 40.7789 156.702 40.677 156.75 40.5752C156.763 40.5478 156.776 40.5211 156.79 40.4937C157.742 38.8476 158.628 37.1704 159.542 35.5034C160.017 34.9071 160.175 36.8702 160.28 37.1214C160.389 37.6427 160.5 38.1661 160.552 38.6961Z" fill="#252525"/>
<path d="M157.276 34.4697C157.883 34.2726 158.171 34.5448 158.079 35.1679C157.719 36.749 156.965 38.211 156.509 39.7654C156.4 39.9965 155.863 42.2822 155.477 42.5183C155.471 42.5054 155.463 42.4924 155.457 42.4793C155.44 42.4461 155.423 42.4136 155.405 42.3811C155.396 42.3631 155.387 42.3458 155.377 42.3284C155.371 42.3161 155.365 42.3046 155.359 42.2923C155.357 42.2872 155.354 42.2829 155.351 42.2778C155.352 42.2771 155.352 42.2771 155.353 42.2764C155.331 42.236 155.31 42.1955 155.288 42.1551C155.281 42.1363 155.274 42.1176 155.266 42.0988C155.249 42.0634 155.23 42.0287 155.206 41.997C154.833 41.2671 154.513 40.5004 154.149 39.764C153.965 39.3243 153.69 38.9048 153.594 38.4355C153.56 38.1417 153.905 37.297 154.263 37.38C154.526 37.5121 154.596 37.8435 154.674 38.1034C154.836 38.6824 154.931 39.2795 155.098 39.857C155.439 38.6434 155.639 37.393 155.998 36.1822C156.14 35.7288 156.191 35.2271 156.44 34.8177C156.643 34.573 156.987 34.5463 157.276 34.4697Z" fill="#252525"/>
<path d="M155.4 43.547C155.395 43.5578 155.391 43.5686 155.387 43.5802C155.386 43.5816 155.385 43.5831 155.385 43.5845C155.385 43.5853 155.384 43.5867 155.384 43.5875C155.345 43.6835 155.311 43.7809 155.278 43.8792C155.226 44.0337 155.175 44.1896 155.123 44.3449C155.062 44.4834 154.987 44.6192 154.938 44.7585C154.705 45.2928 154.458 45.8538 154.238 46.3887C153.97 47.0631 153.72 47.7439 153.462 48.4225C153.362 48.5973 153.199 49.3286 152.95 49.3286C152.905 49.3286 152.857 49.3048 152.807 49.2499C152.651 48.969 152.678 48.6131 152.661 48.3019C152.657 47.6175 152.669 46.9301 152.7 46.2471C153.016 45.4652 153.736 44.8986 154.196 44.1997C154.313 44.0098 154.519 43.8979 154.22 43.76C152.911 43.1297 152.739 43.3607 153.137 41.7883C153.287 40.8829 153.892 41.5371 154.198 41.9493C154.449 42.2533 154.694 42.5515 154.933 42.8576C155.081 43.0799 155.387 43.2684 155.4 43.547Z" fill="#252525"/>
<path d="M158.67 48.7467C158.813 48.8643 159.059 48.9596 158.997 49.1849C158.865 49.5373 158.641 49.8311 158.453 50.1544C158.341 50.3249 158.221 50.5285 158.008 50.5789C157.144 50.5537 156.433 49.1402 156.112 48.4391C156.263 49.7552 156.274 51.1017 156.144 52.4193C156.114 52.7276 156.068 53.0489 155.928 53.324C155.858 53.4683 155.679 53.4712 155.54 53.4597C155.159 53.3918 154.617 53.5181 154.363 53.1651C153.617 51.6749 154.284 49.7372 154.686 48.2225C154.97 47.2319 155.33 46.2667 155.689 45.3022C155.731 45.1765 155.778 44.9888 155.944 45.0032C155.945 44.9845 155.951 44.9686 155.95 44.9519C155.951 44.9505 155.952 44.9462 155.955 44.9476C156.218 45.0718 156.306 45.3685 156.44 45.6046C156.77 46.2081 157.136 46.7871 157.523 47.356C157.867 47.842 158.198 48.3784 158.67 48.7467Z" fill="#252525"/>
<path d="M57.465 12.5664C57.465 12.5664 57.465 12.5664 57.465 12.5647C57.465 12.5647 57.465 12.5647 57.4666 12.5664C57.4666 12.5664 57.4666 12.5664 57.465 12.5664Z" fill="black"/>
<path d="M148.427 49.7927C148.41 49.8158 148.393 49.8389 148.375 49.8621C148.394 49.8396 148.411 49.8158 148.427 49.7927ZM148.483 49.7126C148.467 49.7365 148.451 49.7602 148.433 49.7841C148.452 49.7602 148.468 49.7364 148.483 49.7126ZM162.934 22.8156C163.012 24.0891 163.001 25.3569 162.996 26.629C162.98 28.4643 162.958 30.3009 162.876 32.134C162.812 34.0198 162.856 35.9243 162.528 37.7878C162.39 38.5747 162.076 39.3292 161.882 40.093C161.735 40.6973 161.681 41.3211 161.584 41.9341C161.54 42.1738 161.533 42.4489 161.372 42.6431C161.07 42.8423 161.049 42.3312 161.057 42.1391C161.066 41.5211 161.088 40.9031 161.158 40.288C161.26 39.4598 161.456 38.6462 161.625 37.8296C162.168 35.0638 162.366 31.812 160.666 29.4071C160.085 28.6253 158.964 28.2109 158.104 28.7877C157.158 29.3718 156.369 30.1645 155.72 31.0576C154.025 33.6177 152.939 36.52 152.085 39.4534C151.444 41.464 150.782 43.4711 150.248 45.5135C149.953 46.5792 149.693 47.678 149.282 48.704C148.9 49.8258 148.272 50.6438 147.124 51.0489C147.037 51.0887 146.924 51.1616 146.835 51.1478C146.139 51.4395 145.403 51.6539 145.089 51.7391C143.872 52.1073 142.652 52.456 141.425 52.7838C138.192 53.6566 135.054 54.8371 131.878 55.8883C122.628 59.0123 113.757 63.1275 104.739 66.8442C102.692 67.7077 100.672 68.6412 98.5649 69.3552C97.8336 69.5602 96.0221 70.2909 96.8929 68.7906C98.9909 65.4999 99.5287 63.2083 99.3129 59.3155C99.1851 55.297 98.4755 51.1327 96.3434 47.673C95.1168 45.7843 93.3747 44.7815 91.1647 44.4754C89.9259 44.2646 88.6379 44.1519 87.4062 44.44C85.2265 44.9433 83.1942 45.9792 81.4442 47.3553C78.6386 49.4281 76.2539 52.0626 74.5363 55.1013C72.0679 59.7169 69.9446 64.6407 68.9743 69.8C68.5108 72.5629 68.5166 75.3728 68.4401 78.1647C68.3418 79.3676 68.6617 81.1074 67.1391 81.4699C66.7514 81.6006 66.3507 81.6764 65.9478 81.7406C65.7096 81.8634 65.4035 81.8467 65.1421 81.8937C64.6259 81.9457 64.1075 81.9623 63.5892 81.9905C62.1993 82.0511 60.8074 82.0822 59.4154 82.1024C53.3342 82.1689 47.2582 81.5537 41.2687 80.527C37.539 79.7856 33.8338 78.8788 30.162 77.899C28.8747 77.5958 27.6126 77.2059 26.3637 76.7713C26.3572 76.7691 26.3514 76.767 26.3449 76.7648C22.1712 75.2068 17.7686 74.2646 13.714 72.3752C11.6456 71.4432 9.60744 70.3942 7.60975 69.3257C5.61638 68.2384 3.59779 67.0572 2.18416 65.2371C1.15321 63.8914 0.0817987 61.7392 1.39146 60.2447C1.51344 60.1069 1.6665 60.0238 1.74164 59.8664C1.76616 59.5943 1.55172 59.3712 1.44562 59.135C1.28607 58.8224 1.18357 58.486 1.08971 58.1488C1.08025 58.1127 1.08823 58.0759 1.10702 58.0456C1.01965 57.7676 1.07021 57.4232 1.02254 57.1446C0.929384 55.9194 1.00446 54.6956 1.0955 53.4726C1.21099 51.3089 1.45644 49.1552 1.73514 47.0067C2.18711 42.8619 3.95813 39.2477 6.64024 36.0962C8.60112 33.8119 10.7273 31.6496 13.1358 29.8418C14.4686 28.7957 15.9847 28.0145 17.5579 27.3972C18.2228 27.1366 18.8942 26.8918 19.5606 26.6333C19.5859 26.6232 19.6126 26.6204 19.6379 26.624H19.6386C19.822 26.5583 20.0169 26.5092 20.1591 26.4334C21.128 26.0638 22.1258 25.7735 23.1185 25.4761C25.6375 24.8314 28.1867 24.2574 30.715 23.6654C33.3018 23.0669 35.8821 22.433 38.4813 21.8886C41.0739 21.3716 43.7509 21.0807 46.1558 19.9082C47.2395 19.379 48.3636 18.8383 49.2957 18.0679C49.8876 17.5192 50.4227 16.902 51.0132 16.3483C51.5251 15.8782 52.0702 15.458 52.6903 15.1512C53.5603 14.7093 54.5061 14.4292 55.3241 13.8899C56.0807 13.4257 56.7876 12.9211 57.5175 12.4323C57.5781 12.3197 57.6741 12.2273 57.786 12.163C58.0856 11.9645 58.3759 11.7508 58.6712 11.5436C59.7751 10.7855 60.9158 10.0621 62.0319 9.33224C67.3319 5.82919 73.1987 3.12469 79.4097 1.72554C81.7005 1.22596 84.0643 1.27138 86.3955 1.16098C88.7809 1.02954 91.149 0.776172 93.5258 0.540056C94.8671 0.399284 96.2345 0.233996 97.576 0.152416C97.9174 0.130027 98.2582 0.111244 98.6005 0.0954119C98.5788 0.104037 98.5579 0.115557 98.539 0.128612C98.625 0.128612 98.7094 0.125658 98.791 0.114139C99.5685 0.106164 100.346 0.0765698 101.123 0.0534721C105.936 -0.139284 110.751 0.242622 115.556 0.354507C119.384 0.50538 123.22 0.441873 127.04 0.753072C127.846 0.819529 128.643 0.955931 129.448 1.0296C129.836 1.06498 130.224 1.08377 130.611 1.13504C130.63 1.13865 130.647 1.14585 130.662 1.15601C130.981 1.14444 131.311 1.26063 131.627 1.278C132.794 1.44913 133.961 1.49102 135.125 1.6491C137.723 2.00071 140.278 2.72488 142.641 3.86122C146.407 5.73833 149.808 8.27678 152.89 11.1271C153.561 11.7011 154.142 12.3625 154.782 12.9682C155.406 13.4982 156.087 13.9335 156.796 14.3349C158.026 15.0583 159.3 15.7023 160.556 16.3788C162.464 17.3405 162.935 18.7657 162.826 20.8066C162.831 21.0709 162.862 21.359 162.907 21.6081C162.916 21.6514 162.906 21.6955 162.881 21.7279C162.885 21.785 162.888 21.8427 162.89 21.899C162.906 22.2041 162.92 22.5094 162.934 22.8156Z" fill="white"/>
<path d="M103.257 17.6276C103.26 17.6223 103.264 17.6171 103.268 17.6118C103.264 17.6171 103.26 17.6223 103.257 17.6283C103.257 17.6276 103.257 17.6276 103.257 17.6276Z" fill="black"/>
<path d="M45.4993 23.1232C45.4863 23.1073 45.4741 23.0915 45.4618 23.0749C45.4733 23.0914 45.4856 23.1073 45.4993 23.1232ZM111.74 7.49756C111.726 7.49402 111.713 7.49254 111.7 7.49177C111.713 7.49254 111.727 7.49473 111.74 7.49756ZM112.079 7.78643C112.084 7.79937 112.088 7.81314 112.092 7.82755C112.088 7.81384 112.085 7.80014 112.079 7.78643ZM111.851 7.28679C112.172 7.53442 112.414 7.84846 112.464 8.23545C112.424 9.59277 110.696 10.6866 109.834 11.6107C108.622 12.8308 107.391 14.0322 106.232 15.3029C104.376 17.2746 102.734 19.4261 101.087 21.5689C99.4471 23.7434 97.8465 26.0393 95.5355 27.5591C95.0034 27.9071 94.428 28.185 93.8432 28.4333C93.6266 28.5128 93.4107 28.6233 93.1862 28.6839C93.1848 28.6839 93.184 28.6846 93.1833 28.6846C93.1797 28.6868 93.1754 28.6875 93.1711 28.6889C93.1581 28.6918 93.1458 28.6947 93.1328 28.6969C93.1089 28.7027 93.0859 28.7077 93.062 28.7121C92.1588 28.9035 91.2282 28.8883 90.3091 28.8969C85.5167 28.7887 80.7567 28.1721 75.9708 27.949C73.6836 27.814 71.3891 27.8327 69.1077 27.6155C66.8017 27.4097 64.5189 27.0155 62.2288 26.6841C58.0472 26.0481 53.8452 25.521 49.6925 24.7059C48.5518 24.4012 45.4913 24.1189 45.0949 22.9804C45.0358 22.8555 45.0371 22.7002 45.0986 22.5841C45.0797 22.5876 45.061 22.5899 45.0415 22.5913C45.1014 22.2303 45.4602 22.044 45.6985 21.8015C46.1266 21.4225 46.5641 21.0535 47.0088 20.6933C48.016 19.8825 49.0376 19.0868 50.086 18.3288C53.7174 15.7572 57.4017 13.2455 61.231 10.9748C64.03 9.40959 66.7511 7.65163 69.7387 6.45888C74.864 4.25833 80.5198 4.05039 86.0206 4.10244C92.7681 4.19187 99.5395 4.49805 106.197 5.65459C107.221 5.83801 110.999 6.23434 111.85 7.28626C111.851 7.28608 111.851 7.28608 111.851 7.28679Z" fill="#4D4D4D"/>
<path d="M87.8885 28.8809C87.8891 28.8809 87.8896 28.881 87.8901 28.881C87.8902 28.881 87.8903 28.8811 87.8903 28.8811C87.8916 28.8813 87.8928 28.8815 87.8941 28.8816C87.8924 28.8815 87.8905 28.8813 87.8885 28.8809Z" fill="#242424"/>
<path d="M90.0494 29.0373C90.0497 29.0373 90.0499 29.0373 90.0503 29.0373C90.0505 29.0373 90.0509 29.0374 90.0512 29.0375C90.0506 29.0373 90.05 29.0373 90.0494 29.0373Z" fill="#242424"/>
<path d="M90.0427 29.0369C90.0451 29.037 90.0475 29.0371 90.05 29.0374C90.0476 29.0373 90.0452 29.0371 90.0427 29.0369Z" fill="#242424"/>
<path d="M90.0322 29.0367C90.0345 29.0367 90.0367 29.0367 90.039 29.0367C90.0404 29.0367 90.0418 29.0368 90.0433 29.0369C90.0395 29.0367 90.0359 29.0367 90.0322 29.0367Z" fill="#242424"/>
<path d="M111.29 9.89484C111.29 9.89502 111.29 9.89521 111.29 9.89549C111.29 9.89549 111.29 9.89568 111.29 9.89568C111.29 9.8953 111.29 9.89512 111.29 9.89484Z" fill="#242424"/>
<path d="M111.29 9.8939C111.29 9.8939 111.29 9.89307 111.29 9.89307C111.29 9.89384 111.29 9.89447 111.29 9.89517C111.29 9.89475 111.29 9.89453 111.29 9.8939Z" fill="#242424"/>
<path d="M87.8821 28.8807C87.8839 28.8807 87.8856 28.8809 87.8873 28.881C87.8881 28.8811 87.8889 28.8811 87.8898 28.8814C87.8871 28.881 87.8846 28.8808 87.8821 28.8807Z" fill="#242424"/>
<path d="M87.879 28.8806C87.8803 28.8806 87.8816 28.8806 87.883 28.8807C87.8817 28.8806 87.8803 28.8806 87.879 28.8806Z" fill="#242424"/>
<path d="M89.732 28.5645C89.7317 28.5645 89.7312 28.5644 89.7308 28.5643C89.7327 28.5645 89.7345 28.5645 89.7364 28.5645C89.735 28.5645 89.7335 28.5645 89.732 28.5645Z" fill="#242424"/>
<path d="M92.4217 29.6715C92.4289 29.6766 92.4303 29.6838 92.4231 29.6867C92.4239 29.6867 92.4245 29.6867 92.4245 29.6867C92.2145 29.8817 91.9256 29.8376 91.665 29.8766C91.0398 29.9459 90.3828 30.0586 89.7706 30.1618C87.4033 30.5884 85.0641 31.1595 82.7271 31.7277C76.0481 33.3074 69.3988 35.0495 62.8339 37.0479C58.2133 38.4485 53.7464 40.3026 49.3634 42.314C45.0546 44.2236 40.8838 46.4682 36.4488 47.9323C34.9745 48.4536 33.4345 48.8138 31.8714 48.9048C31.6664 48.9171 31.4614 48.9301 31.257 48.9394C31.2368 48.9394 31.218 48.9358 31.2 48.9286C31.0888 48.9661 30.9675 48.9727 30.8498 48.9618C27.1216 48.7727 23.3919 48.4269 19.7351 47.6739C17.4161 47.1851 15.0655 46.723 12.8713 45.8018C11.8259 45.4119 10.826 44.9145 9.8723 44.3369C8.75759 43.6662 7.56997 42.68 8.13312 41.2382C8.62762 39.9235 9.60665 38.8673 10.5134 37.8211C11.5184 36.7251 12.5393 35.6415 13.5747 34.573C16.113 31.9703 19.0219 29.7415 22.2173 28.0074C23.8115 27.1648 25.5095 26.5468 27.1635 25.8335C28.0992 25.4465 29.0399 25.0718 29.9799 24.6935C30.3705 24.5368 30.7604 24.3795 31.1517 24.2249C31.1626 24.2206 31.1733 24.2178 31.1849 24.2169C31.2247 24.1953 31.2665 24.178 31.3091 24.1657C31.7091 24.0177 32.1069 23.8668 32.5061 23.7166C33.714 23.2394 34.9665 22.843 36.209 22.4849C36.713 22.3391 37.2227 22.2171 37.7237 22.0612C37.8955 22.0185 37.9642 22.2893 37.788 22.3312C36.4365 22.7138 35.0878 23.0755 33.7644 23.5441C33.1117 23.7744 32.4692 24.0315 31.8201 24.2711C31.6411 24.3267 31.4678 24.4206 31.2852 24.4646C31.2765 24.4718 31.2671 24.4768 31.257 24.4812C29.8585 25.0392 28.4622 25.5966 27.071 26.172C25.474 26.8615 23.8229 27.4615 22.2894 28.2831C19.1553 29.9949 16.3006 32.1795 13.8077 34.7309C12.3558 36.3525 8.4305 39.8952 8.2788 41.8994C8.20159 42.8741 9.11486 43.495 9.81955 43.9766C10.7668 44.5649 11.7566 45.0819 12.8005 45.4746C15.0119 46.4226 17.4067 46.9012 19.748 47.3944C22.1443 47.8672 24.5621 48.2348 26.9988 48.4203C27.9179 48.491 28.8636 48.5661 29.7784 48.6246C30.1278 48.647 30.4389 48.6715 30.7805 48.6824C30.8939 48.6852 31.0259 48.686 31.1429 48.7134C31.1653 48.6852 31.1978 48.6657 31.2346 48.6635C31.6259 48.644 32.0187 48.6238 32.41 48.5855C33.4481 48.4765 34.4741 48.2622 35.4747 47.9618C38.3265 47.0708 41.0692 45.8955 43.7565 44.5952C45.9599 43.57 48.167 42.5507 50.3841 41.5543C54.4979 39.6678 58.7128 38.0008 63.0482 36.6932C69.0817 34.8702 75.1715 33.2422 81.3047 31.786C83.7023 31.1983 86.1029 30.6208 88.5186 30.111C89.3265 29.9529 90.1387 29.8115 90.953 29.6909C91.3039 29.6396 91.6555 29.5898 92.01 29.5682C92.1546 29.5575 92.2975 29.5979 92.4217 29.6715Z" fill="#ECECEC"/>
<path d="M5.1245 42.2136C5.0906 42.228 5.05663 42.2417 5.02195 42.254C5.05663 42.2425 5.0906 42.2288 5.1245 42.2136ZM5.41113 42.0605C5.38224 42.0786 5.35335 42.0967 5.32376 42.1132C5.35335 42.0966 5.38224 42.0793 5.41113 42.0605ZM16.9121 27.4781C18.4239 26.9085 18.9914 27.902 18.0297 29.0969C17.3937 29.7307 16.5294 30.1149 15.7627 30.5487C13.6272 31.7234 11.5335 33.2078 10.1949 35.2769C9.3906 36.5007 8.87513 37.8818 8.06293 39.1019C7.35972 40.0875 5.94178 42.8634 4.55852 42.5522C3.52102 42.0887 3.89578 40.6722 4.30285 39.8751C5.00896 38.4904 5.9598 37.2392 6.89334 36.001C8.40437 34.1333 10.1733 32.4908 11.9392 30.8686C13.4401 29.5401 15.0039 28.1756 16.9121 27.4781Z" fill="#D3D3D3"/>
<path d="M71.1703 38.3403C71.701 38.7013 72.1255 39.304 72.0504 39.9697C71.8858 41.7833 70.0844 43.4301 68.8859 44.7008C65.8609 47.6161 62.6626 50.5927 58.681 52.1118C56.0406 53.0619 53.243 53.3998 50.462 53.6243C49.1646 53.7456 47.8622 53.8402 46.559 53.8402C46.4638 53.8402 46.3691 53.8395 46.2745 53.8387C44.9837 53.8186 43.7101 53.7586 42.4546 53.498C41.0627 53.1969 39.7393 52.7428 38.4636 52.1357C37.948 51.9147 37.3777 51.5227 37.3185 51.0613C37.3366 51.0462 37.3539 51.031 37.3719 51.0159C37.4578 50.9423 37.543 50.8686 37.6282 50.7942C37.6773 50.7516 37.7271 50.7083 37.7769 50.6664C40.4634 48.6312 43.739 47.5735 46.86 46.3931C49.8345 45.3621 52.7455 44.134 55.5655 42.7385C58.2765 41.4007 61.0705 40.1416 63.9541 39.2369C65.8839 38.616 67.8838 37.993 69.9306 38.0637C70.353 38.0824 70.8079 38.0947 71.1703 38.3403Z" fill="#D3D3D3"/>
<path opacity="0.38" d="M46.2305 53.8687C44.6068 53.8158 42.9401 53.8286 41.3623 53.4188C40.3931 53.141 39.4471 52.7872 38.5365 52.3547C37.8427 52.021 36.6914 51.6028 37.4709 50.6869C37.6051 50.5092 37.813 50.345 38.0426 50.3541C37.9367 50.7448 37.2406 51.0758 37.5892 51.5014C38.8031 52.3243 40.2561 52.7973 41.6489 53.2102C43.0484 53.5184 44.4764 53.5398 45.9006 53.5848C48.0777 53.6624 50.2324 53.6226 52.3868 53.3264C55.3804 52.8243 58.3718 51.9729 61.0483 50.5289C62.4678 49.6235 63.8219 48.6109 65.1721 47.6048C66.1677 46.8338 67.0748 45.96 67.9972 45.1053C69.1588 43.9868 70.4412 42.9158 71.2402 41.4994C71.4308 41.1512 71.6023 40.8166 71.7182 40.4501C71.7345 40.386 71.761 40.3254 71.8128 40.2825C71.8417 40.2579 71.8893 40.2276 71.9291 40.245C72.1271 40.4059 71.8971 40.7098 71.846 40.9013C71.1849 42.494 69.9129 43.6799 68.6859 44.8388C67.1863 46.2618 65.6671 47.678 63.9592 48.848C62.5449 49.8468 61.1799 50.9503 59.5414 51.5662C55.3638 53.3889 50.7667 54.0897 46.2305 53.8687Z" fill="#9F9F9F"/>
<path d="M71.7801 40.778C71.6942 40.516 71.8216 40.2487 71.8393 39.9947C71.8543 39.629 71.7569 39.2624 71.5982 38.9442C71.5998 38.948 71.6018 38.9517 71.6039 38.9559C71.6042 38.9563 71.6044 38.9568 71.6046 38.9573C70.9136 37.6072 68.8048 38.0755 67.5949 38.3024C67.6024 38.3008 67.6071 38.2994 67.6136 38.298C67.191 38.3877 66.7706 38.49 66.3559 38.6099C66.2367 38.6372 66.065 38.5474 66.1862 38.4193C66.5941 38.1732 67.1366 38.1525 67.5913 38.02C68.8516 37.7937 70.503 37.4254 71.5369 38.381C72.0598 38.9572 72.4334 40.1957 71.7801 40.778Z" fill="#9F9F9F"/>
<path d="M10.8807 62.054C10.6749 61.9703 10.4692 61.8859 10.2649 61.7999C10.4699 61.8859 10.6749 61.971 10.8807 62.054ZM22.6315 64.4019C22.7196 65.0986 22.4813 65.4509 21.7377 65.347C19.2953 64.9868 16.8991 64.3384 14.5339 63.6452C12.5752 63.0482 10.6447 62.3046 8.78848 61.4534C7.76834 60.9978 6.74673 60.5062 5.8038 59.9105C5.45225 59.6564 5.09409 59.403 4.84072 59.0499C4.3129 58.1663 4.33818 57.0826 4.17721 56.0942C4.05883 55.0589 3.7888 54.0503 3.61194 53.0295C3.64661 52.3631 4.40612 52.9486 4.69564 53.1074C6.75978 54.3131 8.97905 55.2098 11.2302 55.9866C13.786 56.874 16.4558 57.3411 19.0485 58.1013C20.1011 58.4392 21.2772 58.681 22.0678 59.4911C22.3883 60.1329 22.2143 60.9091 22.311 61.6007C22.394 62.5378 22.5622 63.4641 22.6315 64.4019Z" fill="#9F9F9F"/>
<path d="M59.2925 69.0589C60.0296 68.9263 60.9776 68.7602 60.6397 70.1959C60.1487 72.3607 59.3372 74.6525 57.6348 75.6041C56.3866 76.3303 54.9759 76.3915 53.6273 76.4638C51.4678 76.5815 49.3069 76.603 47.1468 76.5463C44.1868 76.4769 41.2202 76.385 38.2774 75.9519C35.4985 75.4677 32.758 74.6589 30.0643 73.6656C28.6976 73.1518 27.3634 72.5174 26.0408 71.8459C25.6256 71.6465 24.2099 70.9926 25.1239 70.465C26.1729 70.054 27.2956 70.106 28.3814 70.016C28.5951 69.8361 28.8557 69.9028 29.0968 69.8945C35.2228 69.8807 41.3451 70.3722 47.4732 70.2182C51.4331 70.2089 55.3873 69.9353 59.2925 69.0589Z" fill="#F4F4F4"/>
<path d="M37.6825 74.8026C37.7525 75.4272 36.6096 75.4777 36.1757 75.4755C34.108 75.2221 32.1045 74.6041 30.0953 74.072C27.372 73.3147 24.6342 72.5855 21.9349 71.7466C17.9929 70.4968 13.9938 69.3345 10.3154 67.4104C9.10898 66.7939 7.89177 66.1578 6.84204 65.2943C5.97927 64.5327 5.05294 63.7074 4.63346 62.61C4.45736 62.0743 4.84146 61.7624 5.30211 62.158C5.35044 62.1942 5.37064 62.257 5.35404 62.3126C9.82589 64.9196 14.9158 66.23 19.9169 67.4032C23.4242 68.2479 27.0312 68.6666 30.493 69.6904C31.9558 70.1842 33.3398 70.9004 34.5967 71.7978C35.3223 72.3104 36.0335 72.8512 36.6789 73.4627C37.068 73.8568 37.515 74.2582 37.6825 74.8026Z" fill="#4D4D4D"/>
<path d="M59.4652 65.2747C60.3445 65.2992 62.1105 64.8234 61.6787 66.3201C61.5718 66.8226 61.4224 67.3164 61.3698 67.8283C61.3337 68.1062 61.364 68.6304 60.9503 68.5633C60.9163 68.5618 60.8845 68.5488 60.8608 68.5279C58.3765 68.6015 55.8669 68.3921 53.3732 68.4369C50.8608 68.4239 48.3447 68.6376 45.8337 68.5156C44.5789 68.4383 43.3754 68.0239 42.2332 67.5186C41.5553 67.2233 40.904 66.8594 40.3265 66.3944C39.9561 66.1489 40.1424 65.8442 40.5265 65.7605C42.2888 65.4082 44.1118 65.5706 45.8987 65.5078C49.2659 65.476 52.6397 65.6313 56.0034 65.4414C57.173 65.3887 58.3028 65.3201 59.4652 65.2747Z" fill="#4D4D4D"/>
<path d="M101.084 49.3352C101.57 50.8283 102.996 53.5191 101.261 54.6554C100.127 53.9804 100.074 52.6895 99.7661 51.5957C99.4188 50.3813 98.8947 49.2232 98.1937 48.1504C93.576 40.7054 85.165 40.6564 78.2391 45.7405C78.2384 45.7412 78.2377 45.7419 78.237 45.7426C78.2261 45.7498 78.2153 45.7578 78.2044 45.7665C75.1931 48.0068 73.1434 51.1654 71.5154 54.3486C70.8295 55.4056 71.0692 59.1922 69.187 58.6811C68.4773 58.484 68.4001 57.7086 68.6716 57.17C68.8347 56.6177 68.9776 56.061 69.0983 55.5C69.3423 54.0114 70.1328 52.6807 70.9219 51.3798C74.1051 45.5152 80.3826 40.6968 87.6283 40.317C93.7788 40.0412 98.9373 44.3132 101.084 49.3352Z" fill="#F0F0F0"/>
<path d="M149.688 11.3543C149.724 11.4063 149.761 11.459 149.796 11.5124C149.761 11.459 149.725 11.407 149.688 11.3543ZM149.595 10.4591C150.974 11.8265 150.767 13.9123 149.353 15.1599C147.81 16.3663 145.905 17.0356 144.108 17.7763C141.332 18.9307 138.495 19.93 135.642 20.8801C131.281 22.2287 126.876 23.4301 122.459 24.5845C120.588 25.04 118.68 25.3137 116.798 25.7202C114.727 26.1823 112.597 26.6233 110.538 27.0616C108.725 27.4811 106.924 27.9597 105.131 28.4601C104.415 28.6622 103.704 28.8788 102.99 29.0853C102.557 29.1899 102.065 29.4239 101.642 29.1921C101.064 28.7719 102.046 27.5432 102.28 27.0956C102.652 26.4234 102.905 25.6841 103.278 25.0076C105.237 21.1573 107.869 17.6673 110.849 14.5491C113.752 11.5147 116.937 8.67088 120.662 6.66663C124.222 4.67037 126.732 4.05311 130.818 4.1188C135.163 4.18378 139.599 4.58955 143.632 6.26162C145.858 7.27449 147.969 8.62025 149.595 10.4591Z" fill="#4D4D4D"/>
<path d="M134.4 18.4499C134.364 19.2722 134.478 20.1437 134.196 20.9292C134.091 21.1415 133.865 21.2635 133.663 21.3595C133.344 21.5161 133.015 21.6512 132.678 21.7645C132.676 21.7652 132.674 21.766 132.672 21.766C132.213 21.893 130.962 22.384 130.693 21.8475C130.456 21.197 130.524 20.496 130.495 19.8217C130.462 18.5027 130.49 17.1836 130.497 15.8653C130.513 12.9666 130.613 10.039 130.04 7.18286C129.924 6.57423 129.726 5.98297 129.495 5.40825C129.42 5.22996 129.342 5.05091 129.339 4.85378C129.016 4.37511 129.381 4.07909 129.891 4.22276C130.435 4.321 130.984 4.37942 131.536 4.39396C132.001 4.42497 132.284 4.8386 132.465 5.22128C133.641 7.8615 133.951 10.7992 134.172 13.6445C134.253 15.2516 134.395 16.85 134.4 18.4499Z" fill="#414141"/>
<path opacity="0.54" d="M107.653 14.318C108.187 13.7451 108.707 13.1594 109.228 12.5743C109.23 12.5725 109.233 12.5708 109.235 12.569C109.272 12.5291 109.309 12.4897 109.347 12.4511C109.364 12.4341 109.381 12.4175 109.398 12.4013C109.447 12.3427 109.497 12.2844 109.546 12.2264C109.547 12.2258 109.547 12.2251 109.548 12.2244C109.548 12.2241 109.548 12.2237 109.549 12.2234C109.549 12.2235 109.549 12.2236 109.548 12.2237C109.549 12.2235 109.549 12.2234 109.549 12.2232C109.55 12.2219 109.551 12.2205 109.552 12.219C109.664 12.089 109.779 11.9615 109.893 11.8341C109.908 11.8183 109.922 11.8028 109.936 11.7869C110.048 11.6635 110.159 11.5386 110.273 11.4158C110.273 11.4151 110.273 11.4143 110.274 11.4136C110.277 11.4098 110.281 11.4059 110.284 11.402C110.523 11.1438 110.767 10.891 111.012 10.6389C111.241 10.4028 111.474 10.1697 111.707 9.93787C111.789 9.85558 111.87 9.77182 111.953 9.68953C112.031 9.61078 112.114 9.53576 112.195 9.46068C112.246 9.41442 112.296 9.36681 112.346 9.3199C112.474 9.14368 112.579 8.95028 112.646 8.72858C113.038 7.16266 111.208 6.61972 110.029 6.30279C108.686 5.96708 107.317 5.76274 105.954 5.52521C101.715 4.82058 97.4077 4.45887 93.1156 4.22854C91.6998 4.12239 90.3252 4.02067 88.8986 3.97583C88.5376 3.95468 88.1513 3.95486 87.7737 3.9942C86.8318 3.9411 85.8691 4.05044 84.9289 4.05706C83.523 4.09002 82.1165 3.99367 80.7112 4.05918C79.5822 4.13149 78.4587 4.28136 77.3381 4.43465C76.6536 4.53549 75.9666 4.62144 75.2827 4.72559C73.9564 4.94653 72.6904 5.41155 71.3977 5.76741C69.8207 6.20213 68.453 7.07523 66.9728 7.76574C65.0114 8.76331 63.0606 9.79479 61.1934 10.9635C57.7007 13.1638 54.1735 15.3032 50.8332 17.737C49.8121 18.4723 48.8004 19.2196 47.7958 19.9773C47.0733 20.499 46.3162 21.0119 45.7824 21.7356C45.052 22.2424 44.5304 22.9076 45.4465 23.6239C46.476 24.3336 47.7828 24.478 48.9632 24.818C50.0865 25.1003 51.2309 25.2786 52.3753 25.4483C55.2458 25.927 58.1294 26.3147 61.0057 26.7507C63.1557 27.1471 65.3107 27.5297 67.4998 27.6143C69.3466 27.711 71.1955 27.6633 73.0423 27.7738C75.1916 27.9304 77.3503 28.1882 79.4996 28.3658C81.8639 28.5447 84.2244 28.6962 86.5919 28.8366C86.632 28.8364 86.672 28.8363 86.7121 28.8365C87.0695 28.8372 87.4276 28.8516 87.7843 28.8747C87.784 28.8747 87.7837 28.8747 87.7835 28.8746C87.7922 28.875 87.801 28.8754 87.8097 28.8757C87.8131 28.8759 87.8163 28.8761 87.8198 28.8763C87.8153 28.8761 87.8109 28.8759 87.8062 28.8759C87.8092 28.8761 87.8123 28.8763 87.8152 28.8764C87.8124 28.8763 87.8096 28.8762 87.8067 28.8762C87.8305 28.8768 87.8543 28.8784 87.8781 28.8805C87.8809 28.8805 87.8838 28.8806 87.8867 28.8809C87.8879 28.8809 87.8891 28.8809 87.8903 28.881C87.8908 28.8811 87.8913 28.8812 87.8918 28.8812C87.8909 28.8812 87.89 28.8812 87.8889 28.8812C87.8909 28.8812 87.8931 28.8813 87.8954 28.8816C87.8953 28.8816 87.8951 28.8816 87.895 28.8816C88.0392 28.8898 88.1837 28.9002 88.3284 28.9104C88.3737 28.9137 88.419 28.917 88.4643 28.9202C88.6585 28.9332 88.8535 28.9454 89.0484 28.9592C89.1751 28.9686 89.3019 28.98 89.4284 28.9929C89.4862 28.9987 89.5441 29.0043 89.6018 29.0109C89.6474 29.016 89.6927 29.0221 89.7381 29.0286C89.8359 29.0309 89.9338 29.0332 90.032 29.0369C90.0342 29.0369 90.0361 29.0369 90.0386 29.0369C90.0422 29.0369 90.0458 29.0369 90.0501 29.0376C90.2248 29.0427 90.3995 29.0463 90.575 29.0463C90.7447 29.0463 90.9143 29.0433 91.0833 29.0369C91.432 29.0239 91.7799 29.0008 92.1272 28.9748C92.2088 28.969 92.289 28.9619 92.3705 28.9546H92.3698C92.3727 28.9539 92.3748 28.9539 92.3777 28.9539C92.5359 28.9394 92.6932 28.9272 92.8506 28.9127C92.8463 28.9127 92.842 28.9135 92.8369 28.9135C92.8694 28.9099 92.9019 28.907 92.9344 28.9041C92.9806 28.894 93.0268 28.8831 93.0722 28.873C95.2757 28.3431 96.9594 26.7324 98.4091 25.0603C99.4985 23.7817 100.591 22.5067 101.649 21.2021C102.937 19.6238 104.173 18.0002 105.578 16.5202C106.27 15.788 106.973 15.0631 107.653 14.318ZM87.7825 28.8744C87.7822 28.8744 87.7818 28.8744 87.7815 28.8743C87.7824 28.8743 87.7832 28.8744 87.784 28.8744C87.7835 28.8744 87.783 28.8744 87.7825 28.8744ZM87.8967 28.8816H87.8966C87.897 28.8816 87.8976 28.8816 87.898 28.8816C87.8977 28.8816 87.8972 28.8816 87.8967 28.8816ZM98.3009 24.3339C96.6599 26.3042 94.6571 28.2665 91.9584 28.5098C91.97 28.5084 91.9829 28.5069 91.9952 28.504C91.658 28.5466 91.3202 28.5705 90.9808 28.582C90.9585 28.59 90.9361 28.5914 90.913 28.5929C90.8885 28.5944 90.8632 28.5951 90.8386 28.5958C90.7925 28.5972 90.7462 28.5972 90.7001 28.598C90.6871 28.598 90.6741 28.598 90.6611 28.598C90.5765 28.598 90.4929 28.5965 90.4084 28.5944C90.3643 28.5929 90.3203 28.5922 90.2763 28.5908C90.1991 28.5904 90.1216 28.5889 90.0442 28.5879C90.035 28.5857 90.0259 28.5831 90.0167 28.5809C89.9626 28.5781 89.9084 28.5752 89.8543 28.5716C89.8146 28.5694 89.7756 28.5665 89.7359 28.5643C89.7345 28.5643 89.7337 28.5643 89.7323 28.5643C89.7316 28.5643 89.7309 28.5643 89.7309 28.5643C89.7287 28.5643 89.7272 28.5643 89.7251 28.5637C89.554 28.555 89.3829 28.542 89.2125 28.5275C89.0811 28.5218 88.9497 28.5146 88.819 28.5066C88.4032 28.4814 87.9895 28.4409 87.5765 28.3926C87.339 28.3709 87.1022 28.3464 86.8661 28.3196C86.7326 28.3045 86.599 28.2886 86.4654 28.272C84.5436 28.1579 82.6217 28.033 80.6998 27.9023C78.2703 27.7384 75.8524 27.4382 73.4252 27.2446C70.9489 27.0728 68.4602 27.194 65.9875 26.9515C64.1053 26.8043 62.2614 26.3833 60.3994 26.0916C58.941 25.87 57.4769 25.6873 56.0185 25.4642C52.7263 24.8989 49.354 24.6051 46.1983 23.4398C45.9087 23.2882 45.2676 22.9531 45.6366 22.5691C45.9593 22.2622 46.2842 21.9641 46.6163 21.6644C46.7723 21.5122 46.9061 21.3512 47.0429 21.1846C47.9657 20.6152 48.7967 19.8825 49.6819 19.2588C50.9822 18.3022 52.2954 17.3613 53.6307 16.4538C56.3137 14.6323 59.0894 12.9455 61.8362 11.2211C63.5848 10.1324 65.4192 9.18356 67.2488 8.24666C68.5172 7.65421 69.7309 6.91325 71.0586 6.45029C72.7123 5.98533 74.3004 5.38036 76.0222 5.17969C78.3328 4.85171 80.6503 4.48818 82.9921 4.60437C84.5486 4.6117 86.119 4.64058 87.6677 4.47157C88.7724 4.5704 89.8842 4.53336 91.0013 4.63715C95.6861 4.94835 100.39 5.17502 105.028 5.94906C106.432 6.22983 111.721 6.72156 112.117 8.08391C112.176 8.41821 112.107 8.78422 111.86 9.03688C111.474 9.49464 111.004 9.87076 110.624 10.3343C110.605 10.3591 110.586 10.3836 110.567 10.4083C109.51 11.266 108.694 12.4101 107.752 13.3925C105.667 15.6256 103.548 17.8247 101.701 20.2636C100.592 21.6403 99.4445 22.9861 98.3009 24.3339Z" fill="#242424"/>
<path opacity="0.54" d="M87.8797 28.8806C87.8793 28.8806 87.879 28.8805 87.8786 28.8805C87.8777 28.8805 87.8759 28.8805 87.875 28.8805C87.8765 28.8805 87.8782 28.8805 87.8797 28.8806Z" fill="#242424"/>
<path opacity="0.54" d="M150.609 11.9685C150.061 10.3694 148.67 9.29352 147.345 8.33163C145.313 7.05263 143.138 5.85137 140.787 5.261C137.906 4.58856 134.95 4.31901 132.01 4.05324C131.746 4.04769 131.479 4.04716 131.213 4.06252C130.97 4.06116 130.727 4.07084 130.484 4.08851C129.407 4.122 128.333 4.22267 127.269 4.3938C123.854 4.7802 121.571 5.87571 118.726 7.72282C114.827 10.146 111.503 13.374 108.631 16.9358C106.94 19.1163 105.123 21.2153 103.759 23.6263C103.351 24.3436 102.89 25.0496 102.536 25.7961C101.895 26.8551 101.339 28.3823 102 29.0543C102.62 29.6127 103.512 29.2759 104.19 29.0102C104.999 28.7311 105.806 28.4496 106.609 28.151C108.212 27.6097 109.864 27.2421 111.495 26.7973C113.69 26.2373 115.93 25.6866 118.176 25.3354C120.389 24.9567 122.578 24.4652 124.78 24.0293C126.489 23.5841 128.299 23.3706 129.88 22.5467C129.969 22.5161 130.057 22.4841 130.144 22.4504C131.912 21.9079 133.693 21.3096 135.476 20.8043C138.062 20.03 140.645 19.2759 143.185 18.3591C144.822 17.7492 146.439 17.0816 148.04 16.3866C149.778 15.6909 151.249 13.9138 150.609 11.9685ZM149.112 15.1056C147.626 16.1993 145.774 16.647 144.117 17.4221C140.442 18.8454 136.617 19.8238 132.869 21.0246C131.876 21.3466 130.869 21.6238 129.879 21.956C129.375 22.1101 128.857 22.309 128.391 22.584C128.048 22.6643 127.708 22.76 127.374 22.8715C124.874 23.4224 122.373 23.9949 119.853 24.4553C117.837 24.8595 115.798 25.1486 113.8 25.6444C111.835 26.1669 109.81 26.6277 107.844 27.1938C106.618 27.5201 105.448 28.0055 104.245 28.4016C101.354 29.6725 102.228 27.625 103.022 26.0256C104.025 24.3057 104.964 22.5335 106.184 20.9529C109.323 16.8712 112.562 12.7531 116.781 9.727C118.846 8.2494 120.982 6.82035 123.347 5.86656C124.516 5.41724 125.74 5.18048 126.985 4.99304C128.149 4.80867 129.318 4.67617 130.497 4.6422C130.957 4.62631 131.42 4.62094 131.88 4.58933C132.004 4.60463 132.128 4.61715 132.252 4.62513C135.507 4.9684 138.833 5.16725 141.962 6.19294C143.034 6.57083 144.063 7.06687 145.051 7.62783C146.596 8.43164 148.057 9.39631 149.247 10.6856C150.469 12.1514 150.591 13.7544 149.112 15.1056Z" fill="#242424"/>
<path d="M122.414 22.8828C123.047 23.7195 123.929 25.5216 123.419 26.5316C122.683 27.585 120.693 27.7027 119.51 27.9836C118.662 28.1394 117.796 28.3092 116.948 28.4304C114.165 28.8499 111.364 29.1365 108.558 29.3495C106.751 29.4578 104.931 29.6809 103.144 29.922C102.802 30.0368 102.469 30.262 102.095 30.2404C101.474 30.0548 102.047 29.3307 102.311 29.0512C103.146 27.9315 104.414 27.5597 105.706 27.2319C106.412 27.068 107.164 27.0211 107.795 26.6399C108.306 26.3655 108.633 25.8804 108.833 25.354C109.295 24.3917 109.497 23.3347 110.116 22.4553C111.067 21.0165 112.827 20.41 114.497 20.5486C115.86 20.6143 117.229 20.7487 118.56 21.0605C119.924 21.4078 121.449 21.7905 122.414 22.8828Z" fill="#ECECEC"/>
<path d="M122.219 22.2349C122.853 23.0712 123.735 24.8739 123.224 25.8834C122.489 26.9372 120.499 27.0547 119.316 27.3353C118.467 27.4914 117.602 27.6613 116.753 27.7827C113.97 28.2018 111.169 28.4883 108.364 28.7013C106.556 28.8097 104.736 29.0329 102.949 29.2744C102.608 29.3892 102.275 29.6141 101.901 29.5925C101.28 29.407 101.852 28.683 102.116 28.4036C102.952 27.2836 104.219 26.9121 105.512 26.5843C106.218 26.4201 106.969 26.3733 107.601 25.9922C108.111 25.7173 108.438 25.2328 108.639 24.7064C109.1 23.7438 109.302 22.6871 109.921 21.8072C110.872 20.3685 112.633 19.7619 114.303 19.9009C115.666 19.9663 117.034 20.101 118.365 20.4125C119.73 20.7596 121.255 21.1422 122.219 22.2349Z" fill="white"/>
<path d="M99.6176 41.7509C99.6017 41.7401 99.5866 41.7278 99.5721 41.7155C99.5865 41.7285 99.6017 41.74 99.6176 41.7509ZM99.9996 41.7219C99.9837 41.7299 99.9671 41.7378 99.9511 41.745C99.9678 41.7378 99.9837 41.7307 99.9996 41.7219ZM102.568 37.9453C102.71 37.8515 102.982 37.8926 102.974 38.102C102.97 38.2153 102.9 38.3207 102.843 38.4088C102.567 38.8225 102.252 39.2066 101.968 39.6145C101.391 40.2701 100.582 42.223 99.6291 42.0736C99.1368 41.8383 98.9591 41.2585 98.6054 40.8729C98.3881 40.5083 97.7079 39.9784 98.1289 39.5545C98.7859 39.1055 99.6132 38.9813 100.34 38.6687C101.069 38.393 101.802 38.0934 102.568 37.9453Z" fill="#4D4D4D"/>
<path d="M133.364 26.9004C133.425 27.3133 133.402 27.7928 133.141 28.1372C132.614 28.6744 131.788 28.7192 131.101 28.9321C130.516 29.0838 129.934 29.2325 129.345 29.369C129.097 29.4224 128.836 29.5386 128.587 29.4289C128.579 29.4253 128.57 29.4225 128.562 29.4203C128.56 29.4181 128.558 29.4167 128.558 29.4138C128.558 29.3993 128.589 29.3763 128.598 29.3647C128.299 29.3221 128.216 28.9481 128.329 28.7055C128.62 28.2174 129.296 28.2174 129.779 28.0296C130.406 27.8506 131.046 27.7113 131.581 27.3372C131.763 27.2174 131.799 27.0001 131.876 26.8131C131.976 26.577 132.225 26.4311 132.477 26.4376C132.819 26.4319 133.271 26.5163 133.364 26.9004Z" fill="#9F9F9F"/>
<path d="M152.217 21.6909C152.441 21.919 152.366 22.2851 152.358 22.5753C152.385 22.9659 152.109 23.2467 151.752 23.3507C151.198 23.5434 150.61 23.6178 150.041 23.7564C149.636 23.8084 149.175 24.1001 148.784 23.882C148.607 23.7362 148.52 23.4727 148.577 23.2503C148.795 22.7651 149.553 22.7788 150.004 22.6481C150.417 22.5312 150.931 22.6467 151.254 22.329C151.271 21.8966 151.804 21.3977 152.217 21.6909Z" fill="#9F9F9F"/>
<path d="M162.712 21.6961C162.47 21.6411 162.342 21.4172 162.222 21.2218C161.867 20.6515 161.508 20.0834 161.164 19.5064C160.821 18.8569 160.231 18.2329 160.204 17.4792C160.271 16.8709 161.015 16.8366 161.44 17.0632C162.007 17.3134 162.302 17.904 162.526 18.4451C162.842 19.2931 162.854 20.199 162.909 21.0868C162.896 21.2927 163.006 21.6811 162.716 21.6942C162.716 21.6964 162.714 21.6962 162.712 21.6961ZM161.116 18.8927C161.613 19.7233 162.125 20.5442 162.638 21.3648C162.572 20.0428 162.606 18.4751 161.601 17.4863C161.354 17.2901 160.868 17.0803 160.593 17.2972C160.215 17.6503 160.936 18.528 161.116 18.8927Z" fill="black"/>
<path d="M104.265 43.0865C104.309 41.322 104.306 39.5228 104.043 37.78C103.725 35.5015 102.922 33.345 102.237 31.1639C102.157 30.813 101.917 30.4628 102.029 30.0968C102.029 30.091 102.032 30.0838 102.04 30.0867C102.226 30.2015 102.296 30.4174 102.354 30.6166C102.961 32.5696 103.668 34.5001 104.101 36.5022C104.911 40.4802 104.485 44.5701 104.213 48.5836C103.999 51.4051 103.809 54.2309 103.686 57.0581C103.64 58.3187 103.617 59.5793 103.556 60.8398C103.543 61.1359 103.528 61.4333 103.513 61.7293C103.51 61.8059 103.442 61.865 103.367 61.8607C103.291 61.8564 103.232 61.79 103.236 61.7149C103.322 60.1482 103.357 58.5786 103.41 57.0119C103.582 52.363 104.083 47.7345 104.265 43.0865Z" fill="#ECECEC"/>
<path d="M135.849 28.2976C136.283 30.8548 135.747 33.4366 135.344 35.9613C135.02 37.868 134.672 39.8072 134.536 41.7298C134.461 42.8294 134.441 43.9333 134.513 45.0336C134.612 46.1685 134.707 47.3345 134.317 48.429C133.85 49.6737 133.269 50.8722 132.747 52.0931C132.716 52.1624 132.635 52.1977 132.565 52.1674C132.497 52.1392 132.459 52.0555 132.49 51.9862C133.005 50.7957 133.569 49.6059 134.035 48.4002C134.655 46.6075 134.053 44.7218 134.201 42.8793C134.253 40.8823 134.564 38.9042 134.895 36.9382C135.339 34.1001 136.054 31.1769 135.569 28.3056C135.252 26.7866 134.478 25.4437 133.772 24.0843C133.512 23.5796 133.248 23.0764 132.991 22.5703C132.879 22.3544 132.737 22.1227 132.792 21.8758C132.992 21.9407 133.113 22.1819 133.191 22.353C133.445 22.854 133.706 23.3514 133.963 23.851C134.701 25.2798 135.532 26.7027 135.849 28.2976Z" fill="#ECECEC"/>
<path d="M147.845 40.6455C148.073 40.5545 148.455 40.6195 148.411 40.935C148.263 41.5942 147.85 42.1639 147.52 42.7443C146.291 44.7275 144.882 46.7187 142.844 47.936C138.678 50.3755 134.089 51.9956 129.579 53.6685C126.575 54.7089 123.59 55.8019 120.589 56.8394C116.797 58.1945 113.076 59.7309 109.328 61.2001C107.266 61.9567 105.239 63.0187 103.037 63.2642C102.285 63.1141 102.572 61.2152 102.58 60.6211C102.679 59.7692 102.714 58.8516 103.186 58.1108C103.158 58.1 103.143 58.0552 103.181 58.0466C103.364 57.9484 103.797 57.3788 103.987 57.6625C104.004 57.7015 104.001 57.7448 103.983 57.7802C106.538 57.0971 109.005 56.1189 111.491 55.2236C113.063 54.6598 114.66 54.1205 116.224 53.5516C122.691 51.2983 129.137 49.0154 135.51 46.5168C138.386 45.3761 141.271 44.236 144.037 42.8469C144.786 42.4643 145.517 42.0485 146.235 41.6124C146.781 41.3097 147.271 40.8924 147.845 40.6455Z" fill="#ECECEC"/>
<path d="M154.516 21.4621C154.518 22.3833 154.451 23.3039 154.344 24.2186C153.842 28.6984 152.287 32.979 150.335 37.0162C149.907 37.918 149.485 38.8218 149.052 39.7207C148.87 40.1034 148.691 40.4867 148.517 40.8723C148.372 41.1633 148.294 41.5278 148.002 41.7004C147.908 41.4709 148.053 41.2426 148.14 41.0354C148.392 40.4694 148.653 39.9084 148.922 39.3511C149.542 38.0451 150.167 36.7405 150.773 35.428C152.283 32.0751 153.478 28.5505 153.981 24.8994C154.105 23.6945 154.548 20.7944 153.932 19.8276C153.609 19.4478 153.132 19.2573 152.688 19.0645C152.229 18.8754 151.784 18.6769 151.344 18.4494C150.763 18.1491 150.175 17.8061 149.613 17.4819C149.3 17.3015 148.991 17.1145 148.683 16.9268C148.619 16.8878 148.604 16.7953 148.645 16.7347C148.688 16.6697 148.773 16.6567 148.837 16.6964C149.137 16.8791 149.436 17.0603 149.724 17.2278C150.509 17.6783 151.291 18.1368 152.114 18.5158C152.864 18.8862 153.815 19.0789 154.27 19.8435C154.508 20.3495 154.5 20.9314 154.516 21.4621Z" fill="#ECECEC"/>
<path d="M47.0425 48.5084C46.1762 48.1995 45.7083 47.4703 46.6599 46.8436C47.4627 46.4227 48.3521 46.2162 49.1983 45.9086C50.43 45.5022 51.6544 45.0769 52.8767 44.6401C56.7537 43.3391 60.5513 41.7884 64.4441 40.5458C64.4658 40.4772 64.5235 40.4332 64.582 40.4014C65.1444 40.0996 65.7184 39.8209 66.2989 39.5595C67.4712 39.0392 68.6457 38.5151 69.8382 38.048C69.859 38.0534 69.8807 38.0562 69.8994 38.0593C69.9636 38.0701 70.0286 38.0766 70.0936 38.0845C70.0892 38.0838 70.0849 38.0831 70.0799 38.0824C70.0936 38.0838 70.1066 38.086 70.1195 38.0874C70.1181 38.0874 70.1166 38.0874 70.1152 38.0874C70.2019 38.099 70.2885 38.1127 70.3737 38.1329C70.4409 38.1502 70.508 38.1719 70.5744 38.1943C70.5742 38.1943 70.574 38.1942 70.5738 38.1942C70.5734 38.1941 70.5729 38.1939 70.5725 38.1938C70.5722 38.1937 70.5718 38.1936 70.5716 38.1936C70.5718 38.1937 70.5722 38.1937 70.5725 38.1938C70.5729 38.1939 70.5732 38.1942 70.5738 38.1942C70.5744 38.1944 70.5749 38.1945 70.5755 38.1948C70.5781 38.1959 70.5807 38.1967 70.5838 38.1979C70.5824 38.1971 70.5817 38.1971 70.5809 38.1964C70.5819 38.197 70.5832 38.1974 70.5843 38.1979C70.5842 38.1979 70.584 38.1979 70.5838 38.1979C70.6394 38.2174 70.6957 38.2369 70.7492 38.2614C70.8249 38.2976 70.8986 38.3373 70.9708 38.3806C71.0495 38.4737 71.1253 38.5682 71.1932 38.6701C71.191 38.6672 71.1888 38.6636 71.1867 38.6606C71.1918 38.6684 71.1966 38.676 71.2014 38.6838C71.1225 39.1964 70.8806 39.7734 70.7022 40.0057C70.1066 41.0179 69.3427 41.898 68.592 42.7816C67.7219 43.8206 66.8758 44.884 65.9481 45.8681C64.7409 47.2131 63.1735 48.1495 61.4329 48.4564C58.0013 49.0708 54.5178 48.909 51.0567 49.0809C49.7088 49.0457 48.3435 48.8796 47.0425 48.5084Z" fill="#E9E9E9"/>
<path d="M70.9731 37.8803C71.0279 37.9026 71.0825 37.9252 71.1369 37.9481C71.1426 37.958 71.148 37.9681 71.1532 37.9785C71.0936 37.9454 71.0336 37.9126 70.9731 37.8803Z" fill="#E9E9E9"/>
<path d="M71.191 38.5963C71.4135 38.9342 69.3826 40.1745 69.0736 40.4242C67.7791 41.2805 66.4506 42.0841 65.094 42.8371C62.1224 44.5813 58.9812 46.0109 55.6218 46.8093C53.1425 47.3847 50.6229 47.9811 48.0657 48.002C47.4916 47.9839 45.904 48.0063 46.2181 47.0981C46.4354 46.787 46.8426 46.7046 47.1848 46.6021C48.4107 46.2649 49.6669 46.0036 50.8662 45.5791C52.2935 45.0896 53.4891 44.2073 54.7865 43.4716C56.1424 42.718 57.5697 42.0978 59.0151 41.5389C60.9197 40.822 62.8416 40.1592 64.7534 39.4654C65.8587 39.1449 70.7759 37.1133 71.191 38.5963Z" fill="#FBFBFB"/>
<path d="M46.424 46.986C46.4873 46.7774 46.7731 46.7212 46.9437 46.6142C47.4832 46.3835 48.0225 46.1764 48.5718 45.9739C49.6372 45.5626 50.7012 45.1479 51.7391 44.6873C51.7367 44.6883 51.7341 44.6894 51.7315 44.6905C51.7311 44.6907 51.7308 44.6907 51.7305 44.6909C51.7342 44.6892 51.7378 44.6876 51.7416 44.6861C51.7433 44.6853 51.7452 44.6845 51.747 44.6837C51.744 44.6853 51.742 44.686 51.7384 44.6881C57.1313 42.1035 62.6143 39.5083 68.5552 38.4827C68.9379 38.4921 68.6975 38.78 68.4476 38.7939C63.727 39.6276 59.2537 41.4375 54.9392 43.48C54.9817 43.5082 55.009 43.5563 55.0075 43.6092C56.1074 43.198 57.2027 42.7728 58.3061 42.3734C58.43 42.3419 58.5773 42.3393 58.6945 42.3748C58.5529 42.5805 58.3197 42.6673 58.0931 42.7445C56.2166 43.4767 54.2757 44.0663 52.5036 45.0375C51.7 45.4418 50.8944 45.8425 50.0923 46.2497C49.8952 46.305 49.3512 46.7707 49.2995 46.4184C49.1486 46.4819 49.0048 46.5757 48.8447 46.6113C48.7255 46.6243 48.6462 46.4713 48.7285 46.3825C48.8814 46.2556 49.0751 46.1821 49.2488 46.0863C48.5727 46.2899 47.8935 46.4975 47.2708 46.8207C47.0806 46.8766 46.4711 47.3594 46.424 46.986Z" fill="#FBFBFB"/>
<path d="M162.695 19.1512C162.784 19.6924 163.426 22.4136 162.288 21.8354C161.596 21.0368 161.34 19.9098 160.752 19.0233C160.479 18.5145 159.977 17.9949 160.136 17.3628C160.285 16.8293 160.916 16.6952 161.351 16.9126C162.201 17.2456 162.513 18.2925 162.695 19.1512Z" fill="#4D4D4D"/>
</svg>
